<?xml version="1.0" encoding="utf-8" standalone="no"?>
<!DOCTYPE svg PUBLIC "-//W3C//DTD SVG 1.1//EN"
  "http://www.w3.org/Graphics/SVG/1.1/DTD/svg11.dtd">
<!-- Created with matplotlib (http://matplotlib.org/) -->
<svg height="360pt" version="1.1" viewBox="0 0 720 360" width="720pt" xmlns="http://www.w3.org/2000/svg" xmlns:xlink="http://www.w3.org/1999/xlink">
 <defs>
  <style type="text/css">
*{stroke-linecap:butt;stroke-linejoin:round;}
  </style>
 </defs>
 <g id="figure_1">
  <g id="patch_1">
   <path d="
M0 360
L720 360
L720 0
L0 0
z
" style="fill:#ffffff;"/>
  </g>
  <g id="axes_1">
   <g id="patch_2">
    <path d="
M90 324
L648 324
L648 36
L90 36
z
" style="fill:#ffffff;"/>
   </g>
   <g id="line2d_1">
    <path clip-path="url(#pc897140274)" d="
M90 319.406
L105.7 316.33
L130.584 309.624
L139.768 306.691
L144.313 305.472
L148.097 304.181
L151.339 303.226
L163.797 299.51
L166.271 298.546
L167.781 298.176
L171.789 296.616
L173.555 296.088
L174.66 295.882
L175.714 295.498
L179.929 294.168
L182.358 293.414
L184.201 292.954
L184.898 292.757
L186.552 292.358
L187.181 292.272
L187.793 292.133
L188.681 291.926
L191.923 290.842
L192.665 290.683
L194.081 290.179
L195.197 289.872
L195.629 289.704
L202.092 287.611
L203.342 287.376
L203.942 287.112
L206.194 286.435
L206.461 286.186
L207.242 285.907
L207.748 285.686
L208.487 285.427
L209.667 285
L210.346 284.832
L211.436 284.467
L211.857 284.285
L213.273 283.882
L215.423 283.31
L217.711 282.643
L218.19 282.413
L219.118 282.221
L220.655 281.702
L221.895 281.328
L222.685 281.198
L228.377 279.398
L228.578 279.139
L228.826 277.128
L229.071 273.01
L229.554 258.355
L230.26 237.605
L230.718 233.976
L231.168 233.314
L231.826 232.762
L232.465 232.33
L232.881 231.965
L233.331 231.696
L233.811 231.389
L234.513 231.101
L235.193 230.784
L237.861 229.334
L238.092 229.114
L238.546 228.979
L239.211 228.461
L239.857 228.163
L240.068 228.154
L242.134 226.781
L242.783 226.195
L243.491 225.898
L244.844 225.005
L245.492 224.602
L246.868 224.256
L247.308 223.91
L247.741 223.766
L248.207 223.67
L248.664 223.248
L249.111 222.989
L250 222.394
L250.232 222.355
L250.688 222.115
L252.493 221.29
L252.94 220.762
L254.069 220.272
L255.19 219.552
L255.42 219.293
L255.873 219.101
L256.317 218.726
L256.767 218.592
L257.669 217.91
L258.12 217.584
L258.8 217.181
L261.05 215.731
L262.175 215.136
L264.199 214.07
L264.872 213.619
L265.778 213.206
L268.254 211.478
L268.928 211.238
L270.273 210.451
L273.881 208.061
L274.335 207.802
L275.69 207.12
L278.845 205.296
L279.523 205.046
L279.971 204.739
L280.647 204.442
L281.098 204.13
L281.323 203.246
L281.55 201.168
L281.775 194.122
L282.228 169.651
L282.677 147.83
L282.9 144.504
L283.126 142.867
L283.574 142.258
L283.798 142.114
L284.023 141.826
L284.246 141.725
L284.472 141.192
L286.052 139.997
L286.276 139.464
L287.856 137.952
L288.081 137.909
L290.108 136.152
L290.335 136.066
L290.559 135.778
L291.01 135.576
L292.813 134.15
L293.262 133.891
L294.841 132.206
L295.516 131.832
L295.966 131.501
L296.643 131.227
L298.443 129.715
L299.343 128.635
L299.792 128.045
L300.466 127.598
L303.622 124.79
L304.073 124.099
L307.454 121.147
L308.13 120.6
L309.708 119.362
L310.835 118.31
L311.06 117.922
L311.51 117.691
L312.411 116.482
L313.538 115.344
L313.989 114.912
L314.89 113.976
L315.115 113.89
L315.565 113.429
L316.918 112.334
L317.143 112.262
L317.594 111.629
L317.819 111.514
L318.27 110.779
L318.72 110.419
L319.847 109.426
L320.298 108.706
L320.523 108.562
L322.325 106.344
L323.227 105.768
L324.128 105.019
L324.804 104.198
L325.029 104.069
L325.931 102.874
L326.381 102.139
L330.214 99.4176
L330.89 98.4384
L331.341 97.8192
L331.792 97.4304
L332.243 96.8544
L332.468 96.6384
L332.694 96.5808
L333.595 95.7312
L334.046 95.472
L334.271 95.3424
L334.947 94.5792
L335.173 94.5216
L335.848 93.7872
L336.299 93.6
L336.975 93.0816
L338.328 92.376
L338.553 92.4048
L338.778 92.304
L339.004 92.448
L339.68 92.2176
L339.906 92.3472
L340.131 92.3472
L340.807 92.7792
L341.032 92.6928
L341.258 92.8512
L341.483 93.1824
L341.709 93.7296
L342.385 94.2624
L343.286 95.616
L343.737 95.976
L344.413 96.7536
L344.638 96.7104
L345.765 97.3584
L345.991 97.3296
L346.442 97.4736
L347.118 97.3008
L347.343 97.4448
L347.794 97.2
L348.47 97.0992
L348.921 96.8976
L349.597 96.6816
L349.823 96.48
L350.274 96.4224
L350.499 96.264
L350.95 96.1488
L351.626 95.7456
L352.302 95.3136
L353.654 94.6944
L354.555 94.7376
L355.006 94.9968
L355.232 94.9392
L356.359 95.8176
L357.26 97.0128
L357.711 97.1136
L358.612 98.5104
L358.838 98.4528
L359.063 98.6544
L359.289 98.4528
L359.965 99.1152
L360.416 99.432
L360.867 99.7488
L361.768 100.224
L362.219 100.296
L362.444 100.512
L363.571 100.57
L363.797 100.382
L364.247 100.267
L364.698 99.8352
L365.825 99.4032
L366.501 98.9712
L366.726 98.9136
L367.177 98.6112
L367.628 98.4096
L368.079 98.2512
L368.304 98.208
L369.882 97.2288
L370.783 97.272
L371.234 97.5888
L371.459 97.6464
L372.812 98.9856
L373.488 100.008
L373.939 100.843
L374.389 101.592
L376.192 103.32
L377.094 103.997
L377.545 104.314
L377.77 104.371
L377.996 104.17
L379.348 104.443
L381.602 103.91
L382.052 103.824
L383.179 103.493
L383.405 103.493
L384.306 103.003
L385.208 102.787
L385.433 102.686
L386.56 102.96
L387.461 103.68
L388.363 104.76
L389.039 106.042
L390.842 108.821
L391.293 109.541
L391.969 110.189
L393.772 111.384
L394.223 111.542
L394.448 111.658
L394.674 111.557
L395.124 111.586
L396.477 111.586
L396.927 111.571
L397.378 111.614
L398.73 111.298
L398.956 111.154
L399.632 111.168
L400.308 111.024
L400.534 111.096
L401.21 110.909
L401.66 111.226
L402.111 111.557
L403.013 112.32
L404.59 114.48
L405.943 116.928
L406.619 118.152
L408.196 120.211
L409.098 121.018
L409.774 121.666
L411.126 122.04
L411.802 122.429
L412.929 122.674
L413.831 122.717
L416.31 122.774
L417.212 123.163
L417.437 123.206
L417.662 123.394
L418.113 123.984
L418.789 124.546
L419.691 126.043
L421.268 129.067
L421.719 129.773
L422.17 130.608
L422.395 130.896
L422.846 131.789
L424.875 134.381
L427.128 135.893
L430.284 136.598
L432.988 137.218
L434.566 138.874
L435.693 140.515
L437.721 144.72
L438.623 146.405
L438.848 146.909
L439.524 147.701
L440.2 148.536
L440.876 149.256
L441.102 149.386
L441.327 149.702
L443.806 150.595
L444.482 150.739
L448.089 151.474
L449.441 152.482
L451.244 154.685
L453.723 159.739
L455.751 162.648
L457.554 164.146
L458.456 164.563
L460.259 165.168
L464.09 165.974
L464.992 166.421
L465.668 167.314
L466.344 168.394
L468.373 172.051
L469.274 173.693
L471.077 176.458
L473.106 178.402
L474.007 178.963
L475.81 179.554
L479.416 180.288
L480.543 181.21
L481.219 181.886
L482.121 183.182
L483.022 184.954
L483.924 186.826
L484.375 187.704
L486.178 190.469
L487.53 191.909
L488.882 193.061
L490.911 193.896
L495.644 194.904
L496.545 195.638
L497.672 197.165
L499.7 201.11
L501.278 203.76
L503.306 206.309
L503.983 206.856
L504.433 207.23
L505.56 207.878
L506.011 208.037
L506.687 208.224
L508.716 208.642
L510.068 208.771
L511.646 209.419
L512.772 210.888
L513.449 211.91
L513.899 212.573
L515.026 214.79
L515.477 215.611
L516.604 217.742
L517.505 219.01
L518.182 219.874
L518.858 220.406
L519.308 220.867
L520.886 221.962
L523.591 222.912
L526.971 223.646
L528.774 225.23
L529.676 226.714
L531.254 229.738
L531.704 230.76
L532.38 231.883
L532.831 232.646
L533.507 233.669
L533.733 233.87
L534.183 234.691
L534.86 235.296
L536.663 236.347
L537.79 236.75
L538.466 236.966
L539.593 237.254
L540.719 237.427
L541.396 237.571
L542.748 238.205
L544.1 239.371
L545.452 241.358
L548.833 247.666
L549.509 248.443
L550.636 249.71
L551.763 250.589
L552.439 251.021
L553.341 251.366
L554.017 251.568
L554.693 251.669
L557.848 252.36
L558.524 252.821
L559.201 253.282
L559.651 253.699
L561.229 255.96
L561.68 256.853
L561.905 257.112
L563.483 260.654
L564.159 261.821
L564.61 262.483
L565.286 263.376
L567.089 265.075
L567.54 265.334
L568.216 265.68
L570.92 266.27
L574.076 266.746
L574.526 266.962
L575.879 268.474
L576.329 269.15
L576.78 269.899
L577.907 272.045
L578.358 272.981
L579.71 275.126
L581.062 277.574
L581.964 278.381
L582.189 278.467
L582.865 279.101
L583.767 279.662
L586.246 280.526
L588.951 280.944
L589.176 281.016
L589.627 281.347
L590.078 281.563
L591.881 283.435
L594.36 288.072
L594.81 289.08
L596.614 291.787
L597.064 292.378
L597.515 292.838
L598.867 293.89
L599.769 294.235
L600.22 294.437
L601.121 294.667
L602.924 295.042
L604.953 295.373
L606.53 296.51
L606.981 297.043
L612.39 306.259
L614.418 308.117
L615.095 308.434
L616.222 308.923
L618.025 309.562
L618.926 310.325
L619.828 311.894
L620.504 313.493
L621.405 315.605
L622.758 318.422
L623.434 319.56
L624.561 320.808
L625.462 321.331
L628.843 323.098
L632.223 323.789
L634.703 323.947
L642.14 323.995
L648 324
L648 324" style="fill:none;stroke:#008000;stroke-linecap:square;"/>
   </g>
   <g id="line2d_2">
    <path clip-path="url(#pc897140274)" d="
M90 319.406
L105.7 316.33
L130.584 309.624
L139.768 306.691
L144.313 305.472
L148.097 304.181
L151.339 303.226
L163.797 299.51
L166.271 298.546
L167.781 298.176
L171.789 296.616
L173.555 296.088
L174.66 295.882
L175.714 295.498
L179.929 294.168
L182.358 293.414
L184.201 292.954
L184.898 292.757
L186.552 292.358
L187.181 292.272
L187.793 292.133
L188.681 291.926
L191.923 290.842
L192.665 290.683
L194.081 290.179
L195.197 289.872
L195.629 289.704
L202.092 287.611
L203.342 287.376
L203.942 287.112
L206.194 286.435
L206.461 286.186
L207.242 285.907
L207.748 285.686
L208.487 285.427
L209.667 285
L210.346 284.832
L211.436 284.467
L211.857 284.285
L213.273 283.882
L215.423 283.31
L217.711 282.643
L218.19 282.413
L219.118 282.221
L220.655 281.702
L221.895 281.328
L222.685 281.198
L228.377 279.398
L228.578 279.139
L228.826 277.128
L229.071 273.01
L229.554 258.355
L230.26 237.605
L230.718 233.976
L231.168 233.314
L231.826 232.762
L232.465 232.33
L232.881 231.965
L233.331 231.696
L233.811 231.379
L234.513 231.091
L235.193 230.774
L237.861 229.325
L238.092 229.104
L238.546 228.97
L239.211 228.451
L239.857 228.154
L240.068 228.144
L242.134 226.771
L242.783 226.186
L243.491 225.888
L244.844 224.995
L245.492 224.592
L246.868 224.246
L247.308 223.901
L247.741 223.757
L248.207 223.661
L248.664 223.238
L249.111 222.979
L250 222.384
L250.232 222.346
L250.688 222.106
L252.493 221.28
L252.94 220.752
L254.294 220.128
L254.958 219.715
L256.317 218.707
L256.767 218.573
L257.669 217.891
L258.12 217.565
L258.8 217.162
L261.05 215.712
L262.175 215.117
L264.199 214.051
L264.872 213.6
L265.778 213.187
L268.254 211.459
L268.928 211.219
L270.273 210.432
L273.881 208.042
L274.335 207.782
L275.69 207.101
L278.845 205.277
L279.523 205.027
L279.971 204.72
L280.647 204.422
L281.098 204.11
L281.323 203.227
L281.55 201.149
L281.775 194.102
L282.228 169.608
L282.677 147.773
L282.9 144.446
L283.126 142.81
L283.574 142.2
L283.798 142.056
L284.023 141.768
L284.246 141.667
L284.472 141.134
L286.052 139.925
L286.276 139.392
L287.856 137.88
L288.081 137.837
L290.108 136.08
L290.335 135.994
L290.559 135.706
L291.01 135.504
L292.813 134.078
L293.262 133.776
L294.841 132.091
L295.516 131.717
L295.966 131.386
L296.643 131.112
L298.443 129.6
L299.343 128.52
L299.567 127.973
L303.622 124.517
L304.073 123.826
L304.75 123.178
L305.2 122.746
L305.876 122.256
L307.454 120.83
L308.13 120.283
L309.708 119.045
L310.835 117.979
L311.06 117.504
L311.51 117.274
L312.411 116.006
L315.565 112.709
L316.918 111.586
L317.143 111.514
L317.594 110.88
L317.819 110.75
L318.27 109.987
L318.72 109.627
L319.847 108.605
L320.298 107.827
L320.523 107.683
L322.325 105.437
L323.227 104.861
L324.128 104.098
L326.607 100.915
L327.058 100.67
L327.734 100.152
L327.96 99.6912
L328.411 99.432
L328.861 99.1008
L329.087 99.072
L330.665 97.632
L331.116 96.768
L332.243 95.5584
L332.468 95.3136
L332.694 95.256
L333.595 94.2192
L334.046 93.96
L334.271 93.816
L334.947 93.0096
L335.173 92.952
L335.848 92.2032
L336.299 92.016
L337.426 91.152
L338.328 90.7488
L338.553 90.7776
L338.778 90.6768
L339.004 90.8064
L339.68 90.5472
L340.807 91.008
L341.032 90.8928
L341.258 91.0512
L341.483 91.368
L341.709 91.9152
L342.385 92.3616
L343.286 93.6864
L343.737 94.032
L344.413 94.6944
L344.638 94.608
L345.54 95.0688
L345.765 95.1552
L345.991 95.112
L346.442 95.2128
L346.893 94.9968
L347.118 94.9248
L347.343 94.9968
L348.02 94.4928
L348.696 94.1904
L349.147 94.0032
L349.372 93.9456
L349.823 93.528
L350.274 93.456
L350.724 93.2544
L351.175 92.9664
L351.851 92.2896
L353.654 91.2384
L354.33 91.1952
L354.555 91.1376
L355.006 91.368
L355.232 91.1952
L356.359 92.0304
L357.26 93.0528
L357.711 93.024
L358.612 94.3632
L358.838 94.2048
L359.063 94.3488
L359.289 94.1184
L359.965 94.7664
L360.19 94.6944
L360.641 95.112
L360.867 95.1408
L361.543 95.544
L361.993 95.4864
L362.219 95.5152
L362.444 95.7312
L363.571 95.6448
L364.022 95.328
L364.247 95.2272
L364.698 94.6368
L364.924 94.536
L365.374 94.2192
L365.6 94.1904
L366.726 93.3984
L366.952 92.9952
L368.304 92.1168
L369.206 90.9504
L369.431 90.6912
L370.783 90.3744
L371.234 90.5472
L371.459 90.5616
L372.136 90.9936
L372.586 91.4544
L373.488 92.448
L373.713 92.9232
L373.939 93.1248
L374.389 93.7152
L374.615 93.8304
L375.066 94.2912
L375.516 94.752
L375.742 94.7232
L376.643 95.184
L376.869 95.1264
L377.319 95.3712
L377.77 95.4432
L377.996 95.1408
L378.446 95.112
L378.672 95.0544
L379.122 95.0832
L379.573 94.968
L381.602 93.96
L381.827 93.7584
L382.052 93.7584
L383.179 93.1536
L383.405 93.096
L384.081 92.5488
L384.306 92.2608
L384.532 92.1744
L385.433 91.3392
L385.884 91.2384
L387.236 91.5696
L387.912 92.1312
L388.138 92.1744
L389.265 93.5136
L389.49 93.6144
L390.617 95.1696
L390.842 95.3136
L391.068 95.7312
L392.645 96.5232
L392.871 96.4368
L393.321 96.696
L393.998 96.5088
L394.448 96.5232
L394.674 96.1488
L394.899 96.192
L395.35 95.8896
L395.575 95.8608
L396.026 95.3568
L396.477 95.256
L396.927 95.0544
L397.378 94.6512
L397.829 94.2624
L398.054 94.1184
L398.505 93.4704
L398.73 93.3984
L399.181 92.9088
L399.632 92.6784
L399.857 92.232
L400.534 91.9296
L400.984 91.584
L401.21 91.1088
L401.435 91.1232
L402.111 91.5408
L403.013 91.8144
L403.689 92.0304
L404.816 93.24
L407.07 96.12
L407.52 96.5088
L407.746 96.4656
L407.971 96.5376
L408.196 96.4224
L409.774 96.9408
L409.999 96.8976
L410.45 96.2352
L410.901 95.8032
L411.352 95.688
L411.802 95.6304
L412.028 95.4576
L412.253 95.0832
L414.507 93.6288
L414.958 93.4272
L415.183 93.1392
L415.409 93.096
L416.085 92.5776
L416.31 92.2608
L416.986 92.1456
L417.212 92.0304
L417.437 91.6272
L418.113 91.5696
L418.338 91.6848
L418.564 91.5264
L418.789 91.5552
L419.015 91.728
L419.465 92.3472
L419.691 92.3904
L419.916 92.7216
L420.142 92.7936
L420.592 93.2544
L420.818 93.0816
L421.043 93.456
L421.268 93.6144
L421.719 93.5856
L421.945 93.6576
L422.395 94.0608
L422.621 94.536
L423.071 94.68
L423.522 95.0112
L423.748 94.9824
L424.198 95.2416
L424.424 95.4144
L425.325 95.3856
L425.551 95.5296
L426.001 95.2992
L426.452 95.1552
L426.903 95.1264
L428.706 93.96
L429.157 93.3984
L429.607 93.2112
L430.509 92.6496
L430.734 92.5632
L431.411 91.5984
L432.087 91.1664
L432.763 91.0224
L432.988 90.8784
L433.214 91.0512
L433.439 90.9648
L435.693 91.7712
L436.143 92.1888
L436.369 92.592
L436.594 92.6064
L437.045 92.9376
L437.496 93.5568
L438.172 94.2192
L438.623 94.32
L438.848 94.7232
L439.073 94.8528
L439.524 94.7232
L439.975 94.8096
L440.426 95.1552
L440.651 95.0976
L441.327 95.1984
L442.003 95.0256
L442.679 94.4208
L443.356 93.9456
L443.581 93.8592
L444.032 93.2688
L444.482 92.8224
L445.384 92.2464
L445.609 92.1744
L446.06 91.8
L446.286 91.7712
L447.187 91.008
L448.089 90.6192
L449.215 90.6768
L449.441 90.7776
L449.666 90.576
L449.892 90.6192
L450.117 90.8784
L450.342 90.8928
L450.793 90.7344
L451.469 91.0512
L451.92 91.8432
L452.145 91.9584
L452.822 92.8512
L453.047 93.2976
L453.272 93.3264
L453.723 93.7296
L454.399 94.2336
L454.625 94.3344
L454.85 94.608
L455.977 94.7376
L456.202 94.5792
L456.878 94.6512
L457.104 94.6368
L457.329 94.824
L457.554 94.5216
L458.231 94.2912
L459.132 94.4784
L459.583 94.2192
L459.808 94.2768
L460.034 94.2192
L460.71 93.5712
L460.935 93.5136
L461.161 93.168
L461.611 92.9088
L461.837 92.5632
L462.062 92.5632
L464.316 90.5616
L464.541 90.5328
L464.992 90.3456
L465.217 90.4176
L465.443 90.6768
L465.668 90.6048
L467.02 91.9008
L468.147 93.3264
L468.823 93.5136
L469.274 94.1184
L470.401 94.8816
L470.626 94.824
L470.852 95.112
L471.303 95.2848
L471.979 95.6016
L472.204 95.6016
L472.43 95.472
L473.106 95.5008
L473.331 95.2848
L474.233 95.1264
L474.909 94.4928
L475.134 94.4784
L475.585 94.1184
L475.81 93.96
L476.261 93.456
L477.162 93.024
L478.74 91.7568
L479.191 91.6848
L479.416 91.4976
L479.867 91.512
L480.318 91.3968
L480.543 91.3392
L480.769 91.44
L480.994 91.368
L481.67 91.4688
L481.895 91.296
L482.346 91.656
L482.797 92.3184
L483.022 92.7216
L483.473 92.952
L484.375 93.8448
L484.825 94.0464
L485.051 94.0896
L485.276 94.4496
L485.502 94.3488
L485.727 94.4352
L485.952 94.3056
L486.403 94.4928
L487.079 94.752
L487.305 94.7088
L487.755 94.9104
L488.206 94.7952
L488.657 94.752
L489.108 94.2624
L489.333 94.3344
L490.685 93.8016
L491.136 93.6864
L491.361 93.3552
L491.587 93.312
L491.812 93.1536
L492.038 93.1392
L493.39 92.2896
L493.841 91.872
L494.066 91.8432
L494.742 91.0944
L495.193 90.936
L496.545 90.6192
L496.996 90.9504
L497.447 91.152
L497.897 91.6992
L498.348 91.8
L498.574 91.9008
L500.827 94.1904
L501.053 94.392
L501.278 94.752
L501.503 94.6944
L502.405 95.5008
L502.63 95.3712
L502.856 95.4864
L503.081 95.4576
L503.532 95.544
L503.757 95.5584
L504.433 95.2992
L505.56 95.328
L506.011 95.1696
L506.687 94.68
L506.913 94.5792
L507.589 94.6512
L508.941 93.6288
L509.166 93.4992
L509.842 92.7648
L510.519 92.1456
L510.969 91.6416
L511.42 91.4688
L511.646 91.2816
L512.322 91.584
L512.772 92.016
L513.223 92.4768
L513.449 92.2896
L513.899 92.4624
L514.801 93.528
L515.026 93.456
L515.702 93.8592
L516.378 94.5792
L517.28 95.0112
L517.505 95.0688
L517.731 95.2416
L518.632 94.9392
L519.083 95.0544
L519.534 95.1984
L519.985 94.8384
L520.21 94.824
L520.435 94.6512
L520.886 94.5936
L522.013 93.7584
L522.238 93.7152
L522.464 93.5424
L522.914 93.5712
L523.816 92.9664
L524.041 92.808
L524.267 92.808
L524.943 92.376
L527.197 90.8352
L527.647 90.5616
L528.098 90.5472
L528.324 90.7056
L528.774 90.7056
L529.45 91.4976
L529.676 91.6128
L530.127 92.0592
L530.352 92.2464
L530.577 92.592
L531.028 92.9664
L531.254 93.1536
L531.704 93.7296
L532.606 94.6512
L532.831 94.7376
L533.282 95.2992
L533.733 95.1408
L533.958 95.5152
L534.634 95.7888
L535.761 95.8032
L536.212 95.8032
L536.663 95.4288
L538.015 94.8816
L538.466 94.5504
L540.043 94.032
L540.494 93.4704
L540.719 93.3408
L540.945 93.0816
L541.396 92.9232
L541.846 92.4912
L542.297 92.4336
L542.522 92.3328
L542.748 92.4192
L542.973 92.3328
L543.199 92.3904
L543.649 91.9872
L544.1 92.232
L544.551 92.2752
L545.227 92.6496
L545.678 93.168
L546.129 93.168
L546.579 93.6576
L546.805 93.672
L547.481 94.7808
L548.833 96.0624
L549.284 96.2208
L549.735 96.3504
L549.96 96.1488
L550.185 96.2352
L550.636 96.192
L551.087 96.264
L553.341 95.832
L553.566 95.904
L554.017 95.7456
L554.918 95.2128
L555.369 94.7952
L555.594 94.7088
L556.045 94.392
L556.496 94.1328
L557.172 93.6288
L557.398 93.6864
L557.623 93.3264
L558.524 93.096
L559.877 93.2832
L560.327 93.5856
L560.553 93.4704
L561.229 93.672
L561.68 93.8736
L561.905 94.0464
L562.581 95.2272
L563.032 95.8752
L563.708 97.0128
L563.934 97.0128
L564.835 97.5744
L565.737 97.704
L565.962 97.5024
L566.187 97.7184
L566.413 97.7472
L567.089 97.4592
L567.314 97.5456
L567.765 97.0704
L568.216 96.8256
L568.441 96.8112
L568.666 96.6672
L568.892 96.3216
L569.568 96.0336
L569.793 96.0624
L570.244 95.7888
L570.47 95.4864
L571.146 95.3424
L571.371 95.2992
L572.723 93.8736
L573.174 93.3552
L573.625 92.9664
L574.526 92.6496
L574.752 92.664
L575.428 93.1104
L575.653 92.7792
L576.555 93.096
L579.259 96.0768
L579.935 96.5664
L580.161 96.8688
L580.386 96.9696
L580.612 97.3152
L580.837 97.4016
L581.288 97.704
L581.513 97.632
L581.738 97.7616
L583.542 97.6608
L583.992 97.3296
L584.218 97.3296
L584.668 97.0272
L584.894 97.0704
L585.57 96.5232
L585.795 96.4512
L586.246 95.8896
L586.697 95.7168
L587.373 94.7808
L587.598 94.7808
L588.274 93.9024
L588.725 93.5712
L588.951 93.2832
L590.078 92.9664
L590.528 92.88
L590.754 92.7648
L591.881 93.3552
L592.106 93.4128
L593.458 94.4784
L593.684 95.0112
L594.134 95.2848
L595.712 96.9696
L596.614 97.2
L596.839 97.1136
L597.064 97.3584
L597.29 97.3152
L597.966 97.5168
L598.191 97.5024
L598.642 97.0848
L599.318 96.8976
L599.994 96.9696
L600.22 96.8112
L600.445 96.84
L600.67 96.6528
L600.896 96.696
L602.023 96.1344
L602.924 95.112
L603.375 94.824
L603.826 94.4352
L604.051 94.2624
L604.276 93.816
L604.727 93.5136
L604.953 93.4848
L605.178 93.2688
L605.403 93.4416
L606.756 93.4992
L607.882 94.3344
L608.784 95.2704
L609.46 95.9328
L609.911 96.1776
L610.362 96.5808
L610.587 96.4224
L611.263 96.8832
L611.714 97.3296
L611.939 97.5744
L612.615 97.776
L612.841 97.6176
L613.968 97.8912
L614.869 97.5456
L615.095 97.6464
L616.898 96.1632
L617.574 96.0192
L617.799 95.9472
L618.025 95.5152
L618.475 95.2848
L618.701 94.9248
L619.151 94.6656
L619.602 94.392
L620.278 93.7296
L621.405 93.1104
L621.856 93.024
L622.081 92.9088
L622.532 93.0672
L622.758 93.2112
L622.983 93.1968
L623.659 93.7584
L624.11 93.8448
L625.011 94.5936
L625.237 94.68
L625.687 95.0544
L625.913 95.2128
L626.589 95.2416
L628.167 96.7248
L629.068 96.912
L629.294 96.7392
L629.519 96.8544
L631.097 96.2928
L631.547 96.0192
L631.773 96.0192
L632.223 95.5728
L633.35 95.1264
L633.801 94.4928
L635.379 93.3696
L635.604 92.9952
L636.055 92.8944
L636.28 92.592
L637.182 92.3328
L637.407 92.2032
L637.633 92.2752
L638.083 92.0736
L638.309 92.2608
L638.534 92.232
L640.337 93.9024
L640.562 93.672
L640.788 93.8304
L641.013 93.7872
L641.464 94.392
L641.689 94.6656
L642.14 94.8096
L642.816 95.5296
L643.042 95.5584
L643.267 95.904
L644.619 96.2928
L644.845 96.2496
L645.07 96.4224
L646.648 96.0048
L646.873 96.048
L647.775 95.5008
L648 95.2416
L648 95.2416" style="fill:none;stroke:#0000ff;stroke-linecap:square;"/>
   </g>
   <g id="matplotlib.axis_1">
    <g id="xtick_1">
     <g id="line2d_3">
      <path clip-path="url(#pc897140274)" d="
M90 324
L90 36" style="fill:none;stroke:#808080;stroke-dasharray:6.000000,6.000000;stroke-dashoffset:0.0;stroke-width:0.5;"/>
     </g>
     <g id="line2d_4">
      <defs>
       <path d="
M0 0
L0 -4" id="mc7db9fdffb" style="stroke:#000000;stroke-width:0.5;"/>
      </defs>
      <g>
       <use style="stroke:#000000;stroke-width:0.5;" x="90.0" xlink:href="#mc7db9fdffb" y="324.0"/>
      </g>
     </g>
     <g id="line2d_5">
      <defs>
       <path d="
M0 0
L0 4" id="m5a7d422ac3" style="stroke:#000000;stroke-width:0.5;"/>
      </defs>
      <g>
       <use style="stroke:#000000;stroke-width:0.5;" x="90.0" xlink:href="#m5a7d422ac3" y="36.0"/>
      </g>
     </g>
     <g id="text_1">
      <!-- $10^{0}$ -->
      <defs>
       <path d="
M42 31.6406
C42 37.75 41.9062 48.125 37.7031 56.1094
C34 63.1094 28.0938 65.5938 22.9062 65.5938
C18.0938 65.5938 12 63.4062 8.20312 56.2031
C4.20312 48.7188 3.79688 39.4375 3.79688 31.6406
C3.79688 25.9531 3.90625 17.2812 7 9.67188
C11.2969 -0.609375 19 -2 22.9062 -2
C27.5 -2 34.5 -0.109375 38.5938 9.375
C41.5938 16.2812 42 24.3594 42 31.6406
M22.9062 -0.40625
C16.5 -0.40625 12.7031 5.07812 11.2969 12.6875
C10.2031 18.5625 10.2031 27.1562 10.2031 32.75
C10.2031 40.4375 10.2031 46.8281 11.5 52.9219
C13.4062 61.3906 19 64 22.9062 64
C27 64 32.2969 61.2969 34.2031 53.125
C35.5 47.4375 35.5938 40.7344 35.5938 32.75
C35.5938 26.25 35.5938 18.2656 34.4062 12.375
C32.2969 1.48438 26.4062 -0.40625 22.9062 -0.40625" id="CMR17-48"/>
       <path d="
M26.5938 63.3125
C26.5938 65.4062 26.5 65.5 25.0938 65.5
C21.2031 61.1875 15.2969 59.7969 9.70312 59.7969
C9.40625 59.7969 8.90625 59.7969 8.79688 59.6094
C8.70312 59.3906 8.70312 59.1719 8.70312 57
C11.7969 57 17 57.5938 21 59.9844
L21 7.20312
C21 3.6875 20.7969 2.5 12.2031 2.5
L9.20312 2.5
L9.20312 0
C14 0 19 0 23.7969 0
C28.5938 0 33.5938 0 38.4062 0
L38.4062 2.5
L35.4062 2.5
C26.7969 2.5 26.5938 3.59375 26.5938 7.15625
z
" id="CMR17-49"/>
      </defs>
      <g transform="translate(82.0299183239 336.870650466)scale(0.12 -0.12)">
       <use transform="scale(0.9962640099626402)" xlink:href="#CMR17-49"/>
       <use transform="translate(45.69047711706103 0.0)scale(0.9962640099626402)" xlink:href="#CMR17-48"/>
       <use transform="translate(91.38095423412206 36.15363894185866)scale(0.6973817666173724)" xlink:href="#CMR17-48"/>
      </g>
     </g>
    </g>
    <g id="xtick_2">
     <g id="line2d_6">
      <path clip-path="url(#pc897140274)" d="
M142.155 324
L142.155 36" style="fill:none;stroke:#808080;stroke-dasharray:6.000000,6.000000;stroke-dashoffset:0.0;stroke-width:0.5;"/>
     </g>
     <g id="line2d_7">
      <g>
       <use style="stroke:#000000;stroke-width:0.5;" x="142.154553174" xlink:href="#mc7db9fdffb" y="324.0"/>
      </g>
     </g>
     <g id="line2d_8">
      <g>
       <use style="stroke:#000000;stroke-width:0.5;" x="142.154553174" xlink:href="#m5a7d422ac3" y="36.0"/>
      </g>
     </g>
     <g id="text_2">
      <!-- $10^{1}$ -->
      <g transform="translate(134.184471498 336.870650466)scale(0.12 -0.12)">
       <use transform="scale(0.9962640099626402)" xlink:href="#CMR17-49"/>
       <use transform="translate(45.69047711706103 0.0)scale(0.9962640099626402)" xlink:href="#CMR17-48"/>
       <use transform="translate(91.38095423412206 36.15363894185866)scale(0.6973817666173724)" xlink:href="#CMR17-49"/>
      </g>
     </g>
    </g>
    <g id="xtick_3">
     <g id="line2d_9">
      <path clip-path="url(#pc897140274)" d="
M194.309 324
L194.309 36" style="fill:none;stroke:#808080;stroke-dasharray:6.000000,6.000000;stroke-dashoffset:0.0;stroke-width:0.5;"/>
     </g>
     <g id="line2d_10">
      <g>
       <use style="stroke:#000000;stroke-width:0.5;" x="194.309106348" xlink:href="#mc7db9fdffb" y="324.0"/>
      </g>
     </g>
     <g id="line2d_11">
      <g>
       <use style="stroke:#000000;stroke-width:0.5;" x="194.309106348" xlink:href="#m5a7d422ac3" y="36.0"/>
      </g>
     </g>
     <g id="text_3">
      <!-- $10^{2}$ -->
      <defs>
       <path d="
M41.7031 15.4531
L39.9062 15.4531
C38.9062 8.375 38.0938 7.17188 37.7031 6.5625
C37.2031 5.76562 30 5.76562 28.5938 5.76562
L9.40625 5.76562
C13 9.67188 20 16.75 28.5 24.9531
C34.5938 30.7344 41.7031 37.5312 41.7031 47.4219
C41.7031 59.2188 32.2969 66 21.7969 66
C10.7969 66 4.09375 56.3125 4.09375 47.3438
C4.09375 43.4375 7 42.9375 8.20312 42.9375
C9.20312 42.9375 12.2031 43.5469 12.2031 47.0312
C12.2031 50.1094 9.59375 51 8.20312 51
C7.59375 51 7 50.9062 6.59375 50.7031
C8.5 59.2188 14.2969 63.4062 20.4062 63.4062
C29.0938 63.4062 34.7969 56.5156 34.7969 47.4219
C34.7969 38.7344 29.7031 31.25 24 24.75
L4.09375 2.28125
L4.09375 0
L39.2969 0
z
" id="CMR17-50"/>
      </defs>
      <g transform="translate(186.339024672 336.870650466)scale(0.12 -0.12)">
       <use transform="scale(0.9962640099626402)" xlink:href="#CMR17-49"/>
       <use transform="translate(45.69047711706103 0.0)scale(0.9962640099626402)" xlink:href="#CMR17-48"/>
       <use transform="translate(91.38095423412206 36.15363894185866)scale(0.6973817666173724)" xlink:href="#CMR17-50"/>
      </g>
     </g>
    </g>
    <g id="xtick_4">
     <g id="line2d_12">
      <path clip-path="url(#pc897140274)" d="
M246.464 324
L246.464 36" style="fill:none;stroke:#808080;stroke-dasharray:6.000000,6.000000;stroke-dashoffset:0.0;stroke-width:0.5;"/>
     </g>
     <g id="line2d_13">
      <g>
       <use style="stroke:#000000;stroke-width:0.5;" x="246.463659523" xlink:href="#mc7db9fdffb" y="324.0"/>
      </g>
     </g>
     <g id="line2d_14">
      <g>
       <use style="stroke:#000000;stroke-width:0.5;" x="246.463659523" xlink:href="#m5a7d422ac3" y="36.0"/>
      </g>
     </g>
     <g id="text_4">
      <!-- $10^{3}$ -->
      <defs>
       <path d="
M22.0938 33.7031
C31 33.7031 34.9062 25.9688 34.9062 17.0312
C34.9062 5 28.5 0.390625 22.7031 0.390625
C17.4062 0.390625 8.79688 3.03125 6.09375 10.8281
C6.59375 10.625 7.09375 10.625 7.59375 10.625
C10 10.625 11.7969 12.2188 11.7969 14.8125
C11.7969 17.7031 9.59375 19 7.59375 19
C5.90625 19 3.29688 18.2031 3.29688 14.4688
C3.29688 5.23438 12.2969 -2 22.9062 -2
C34 -2 42.5 6.71875 42.5 16.9531
C42.5 26.6719 34.5 33.6875 25 34.7969
C32.5938 36.375 39.9062 43.0625 39.9062 52.0156
C39.9062 59.6875 32 65.2969 23 65.2969
C13.9062 65.2969 5.90625 59.8281 5.90625 52.0156
C5.90625 48.5938 8.5 48 9.79688 48
C11.9062 48 13.7031 49.2969 13.7031 51.8906
C13.7031 54.4688 11.9062 55.7656 9.79688 55.7656
C9.40625 55.7656 8.90625 55.7656 8.5 55.5625
C11.4062 61.8594 19.2969 63 22.7969 63
C26.2969 63 32.9062 61.3281 32.9062 51.875
C32.9062 49.1094 32.5 44.1875 29.0938 39.8438
C26.0938 36 22.7031 36 19.4062 35.5938
C18.9062 35.5938 16.5938 35.5938 16.2031 35.5938
C15.5 35.4844 15.0938 35.3906 15.0938 34.5938
C15.0938 33.8125 15.2031 33.7031 17.2031 33.7031
z
" id="CMR17-51"/>
      </defs>
      <g transform="translate(238.493577846 336.870650466)scale(0.12 -0.12)">
       <use transform="scale(0.9962640099626402)" xlink:href="#CMR17-49"/>
       <use transform="translate(45.69047711706103 0.0)scale(0.9962640099626402)" xlink:href="#CMR17-48"/>
       <use transform="translate(91.38095423412206 36.15363894185866)scale(0.6973817666173724)" xlink:href="#CMR17-51"/>
      </g>
     </g>
    </g>
    <g id="xtick_5">
     <g id="line2d_15">
      <path clip-path="url(#pc897140274)" d="
M298.618 324
L298.618 36" style="fill:none;stroke:#808080;stroke-dasharray:6.000000,6.000000;stroke-dashoffset:0.0;stroke-width:0.5;"/>
     </g>
     <g id="line2d_16">
      <g>
       <use style="stroke:#000000;stroke-width:0.5;" x="298.618212697" xlink:href="#mc7db9fdffb" y="324.0"/>
      </g>
     </g>
     <g id="line2d_17">
      <g>
       <use style="stroke:#000000;stroke-width:0.5;" x="298.618212697" xlink:href="#m5a7d422ac3" y="36.0"/>
      </g>
     </g>
     <g id="text_5">
      <!-- $10^{4}$ -->
      <defs>
       <path d="
M33.5938 64.3281
C33.5938 66.4062 33.5 66.5 31.7031 66.5
L2 19.5938
L2 17
L27.7969 17
L27.7969 7.14062
C27.7969 3.5 27.5938 2.5 20.5938 2.5
L18.7031 2.5
L18.7031 0
C21.9062 0 27.2969 0 30.7031 0
C34.0938 0 39.5 0 42.7031 0
L42.7031 2.5
L40.7969 2.5
C33.7969 2.5 33.5938 3.5 33.5938 7.14062
L33.5938 17
L43.7969 17
L43.7969 19.5938
L33.5938 19.5938
z

M28.0938 57.7656
L28.0938 19.5938
L4 19.5938
z
" id="CMR17-52"/>
      </defs>
      <g transform="translate(290.648131021 336.870650466)scale(0.12 -0.12)">
       <use transform="scale(0.9962640099626402)" xlink:href="#CMR17-49"/>
       <use transform="translate(45.69047711706103 0.0)scale(0.9962640099626402)" xlink:href="#CMR17-48"/>
       <use transform="translate(91.38095423412206 36.15363894185866)scale(0.6973817666173724)" xlink:href="#CMR17-52"/>
      </g>
     </g>
    </g>
    <g id="xtick_6">
     <g id="line2d_18">
      <path clip-path="url(#pc897140274)" d="
M350.773 324
L350.773 36" style="fill:none;stroke:#808080;stroke-dasharray:6.000000,6.000000;stroke-dashoffset:0.0;stroke-width:0.5;"/>
     </g>
     <g id="line2d_19">
      <g>
       <use style="stroke:#000000;stroke-width:0.5;" x="350.772765871" xlink:href="#mc7db9fdffb" y="324.0"/>
      </g>
     </g>
     <g id="line2d_20">
      <g>
       <use style="stroke:#000000;stroke-width:0.5;" x="350.772765871" xlink:href="#m5a7d422ac3" y="36.0"/>
      </g>
     </g>
     <g id="text_6">
      <!-- $10^{5}$ -->
      <defs>
       <path d="
M11.4062 57.6875
C12.4062 57.2812 16.5 56 20.7031 56
C30 56 35.0938 61.0156 38 63.9219
C38 64.7344 38 65.25 37.4062 65.25
C37.2969 65.25 37.0938 65.25 36.2969 64.8281
C32.7969 63.3125 28.7031 62.0781 23.7031 62.0781
C20.7031 62.0781 16.2031 62.5 11.2969 64.7344
C10.2031 65.25 10 65.25 9.90625 65.25
C9.40625 65.25 9.29688 65.1406 9.29688 63.1562
L9.29688 34.2812
C9.29688 32.5 9.29688 32 10.2969 32
C10.7969 32 11 32.2031 11.5 32.9062
C14.7031 37.4844 19.0938 39.4062 24.0938 39.4062
C27.5938 39.4062 35.0938 37.2188 35.0938 20.1406
C35.0938 16.9531 35.0938 11.1719 32.0938 6.57812
C29.5938 2.48438 25.7031 0.390625 21.4062 0.390625
C14.7969 0.390625 8.09375 5 6.29688 12.7188
C6.70312 12.6094 7.5 12.4219 7.90625 12.4219
C9.20312 12.4219 11.7031 13.125 11.7031 16.2188
C11.7031 18.9062 9.79688 20 7.90625 20
C5.59375 20 4.09375 18.5938 4.09375 15.7969
C4.09375 7.09375 11 -2 21.5938 -2
C31.9062 -2 41.7031 6.875 41.7031 19.75
C41.7031 31.7188 33.9062 41 24.2031 41
C19.0938 41 14.7969 39.0938 11.4062 35.4531
z
" id="CMR17-53"/>
      </defs>
      <g transform="translate(342.802684195 336.870650466)scale(0.12 -0.12)">
       <use transform="scale(0.9962640099626402)" xlink:href="#CMR17-49"/>
       <use transform="translate(45.69047711706103 0.0)scale(0.9962640099626402)" xlink:href="#CMR17-48"/>
       <use transform="translate(91.38095423412206 36.15363894185866)scale(0.6973817666173724)" xlink:href="#CMR17-53"/>
      </g>
     </g>
    </g>
    <g id="xtick_7">
     <g id="line2d_21">
      <path clip-path="url(#pc897140274)" d="
M402.927 324
L402.927 36" style="fill:none;stroke:#808080;stroke-dasharray:6.000000,6.000000;stroke-dashoffset:0.0;stroke-width:0.5;"/>
     </g>
     <g id="line2d_22">
      <g>
       <use style="stroke:#000000;stroke-width:0.5;" x="402.927319045" xlink:href="#mc7db9fdffb" y="324.0"/>
      </g>
     </g>
     <g id="line2d_23">
      <g>
       <use style="stroke:#000000;stroke-width:0.5;" x="402.927319045" xlink:href="#m5a7d422ac3" y="36.0"/>
      </g>
     </g>
     <g id="text_7">
      <!-- $10^{6}$ -->
      <defs>
       <path d="
M10.5938 34
C10.5938 57.6562 21.7969 63 28.2969 63
C30.4062 63 35.5 62.6406 37.5 59
C35.9062 59 32.9062 59 32.9062 55.5156
C32.9062 52.8281 35.0938 51.9219 36.5 51.9219
C37.4062 51.9219 40.0938 52.3125 40.0938 55.625
C40.0938 61.7812 35.0938 65.2969 28.2031 65.2969
C16.2969 65.2969 3.79688 52.9688 3.79688 31
C3.79688 3.95312 15.0938 -2 23.0938 -2
C32.7969 -2 42 6.67188 42 20.0469
C42 32.5156 33.9062 41.5938 23.7031 41.5938
C17.5938 41.5938 13.0938 37.6094 10.5938 30.625
z

M23.0938 0.390625
C10.7969 0.390625 10.7969 18.75 10.7969 22.4375
C10.7969 29.625 14.2031 40 23.5 40
C25.2031 40 30.0938 40 33.4062 33.125
C35.2031 29.2188 35.2031 25.1406 35.2031 20.1406
C35.2031 14.75 35.2031 10.7812 33.0938 6.78125
C30.9062 2.67188 27.7031 0.390625 23.0938 0.390625" id="CMR17-54"/>
      </defs>
      <g transform="translate(394.957237369 336.870650466)scale(0.12 -0.12)">
       <use transform="scale(0.9962640099626402)" xlink:href="#CMR17-49"/>
       <use transform="translate(45.69047711706103 0.0)scale(0.9962640099626402)" xlink:href="#CMR17-48"/>
       <use transform="translate(91.38095423412206 36.15363894185866)scale(0.6973817666173724)" xlink:href="#CMR17-54"/>
      </g>
     </g>
    </g>
    <g id="xtick_8">
     <g id="line2d_24">
      <path clip-path="url(#pc897140274)" d="
M455.082 324
L455.082 36" style="fill:none;stroke:#808080;stroke-dasharray:6.000000,6.000000;stroke-dashoffset:0.0;stroke-width:0.5;"/>
     </g>
     <g id="line2d_25">
      <g>
       <use style="stroke:#000000;stroke-width:0.5;" x="455.081872219" xlink:href="#mc7db9fdffb" y="324.0"/>
      </g>
     </g>
     <g id="line2d_26">
      <g>
       <use style="stroke:#000000;stroke-width:0.5;" x="455.081872219" xlink:href="#m5a7d422ac3" y="36.0"/>
      </g>
     </g>
     <g id="text_8">
      <!-- $10^{7}$ -->
      <defs>
       <path d="
M45.0938 61.5781
L45.0938 63.7656
L21.5938 63.7656
C9.90625 63.7656 9.70312 65.0781 9.29688 67
L7.5 67
L4.59375 48.3438
L6.40625 48.3438
C6.70312 50.2344 7.40625 55.3125 8.59375 57.2031
C9.20312 58 16.5938 58 18.2969 58
L40.2969 58
L29.2031 41.5781
C21.7969 30.5312 16.7031 15.6094 16.7031 2.57812
C16.7031 1.39062 16.7031 -2 20.2969 -2
C23.9062 -2 23.9062 1.39062 23.9062 2.67188
L23.9062 7.26562
C23.9062 23.5625 26.7031 34.3125 31.2969 41.1875
z
" id="CMR17-55"/>
      </defs>
      <g transform="translate(447.111790543 336.870650466)scale(0.12 -0.12)">
       <use transform="scale(0.9962640099626402)" xlink:href="#CMR17-49"/>
       <use transform="translate(45.69047711706103 0.0)scale(0.9962640099626402)" xlink:href="#CMR17-48"/>
       <use transform="translate(91.38095423412206 36.15363894185866)scale(0.6973817666173724)" xlink:href="#CMR17-55"/>
      </g>
     </g>
    </g>
    <g id="xtick_9">
     <g id="line2d_27">
      <path clip-path="url(#pc897140274)" d="
M507.236 324
L507.236 36" style="fill:none;stroke:#808080;stroke-dasharray:6.000000,6.000000;stroke-dashoffset:0.0;stroke-width:0.5;"/>
     </g>
     <g id="line2d_28">
      <g>
       <use style="stroke:#000000;stroke-width:0.5;" x="507.236425393" xlink:href="#mc7db9fdffb" y="324.0"/>
      </g>
     </g>
     <g id="line2d_29">
      <g>
       <use style="stroke:#000000;stroke-width:0.5;" x="507.236425393" xlink:href="#m5a7d422ac3" y="36.0"/>
      </g>
     </g>
     <g id="text_9">
      <!-- $10^{8}$ -->
      <defs>
       <path d="
M27.2031 35.375
C33.5 38.5625 39.9062 43.3281 39.9062 50.9844
C39.9062 60.0312 31.0938 65.2969 23 65.2969
C13.9062 65.2969 5.90625 58.7344 5.90625 49.6875
C5.90625 47.2031 6.5 42.9219 10.4062 39.1406
C11.4062 38.1562 15.5938 35.1719 18.2969 33.2812
C13.7969 30.9844 3.29688 25.5312 3.29688 14.5938
C3.29688 4.35938 13.0938 -2 22.7969 -2
C33.5 -2 42.5 5.65625 42.5 15.7969
C42.5 24.8438 36.4062 29.0312 32.4062 31.7031
z

M14.0938 44.125
C13.2969 44.625 9.29688 47.7031 9.29688 52.375
C9.29688 58.4375 15.5938 63 22.7969 63
C30.7031 63 36.5 57.4531 36.5 50.9844
C36.5 41.7344 26.0938 36.4688 25.5938 36.4688
C25.5 36.4688 25.4062 36.4688 24.5938 37.0781
z

M32.5 23.7344
C34 22.6406 38.7969 19.375 38.7969 13.2969
C38.7969 5.95312 31.4062 0.390625 23 0.390625
C13.9062 0.390625 7 6.84375 7 14.6875
C7 22.5469 13.0938 29.0938 20 32.1875
z
" id="CMR17-56"/>
      </defs>
      <g transform="translate(499.266343717 336.870650466)scale(0.12 -0.12)">
       <use transform="scale(0.9962640099626402)" xlink:href="#CMR17-49"/>
       <use transform="translate(45.69047711706103 0.0)scale(0.9962640099626402)" xlink:href="#CMR17-48"/>
       <use transform="translate(91.38095423412206 36.15363894185866)scale(0.6973817666173724)" xlink:href="#CMR17-56"/>
      </g>
     </g>
    </g>
    <g id="xtick_10">
     <g id="line2d_30">
      <path clip-path="url(#pc897140274)" d="
M559.391 324
L559.391 36" style="fill:none;stroke:#808080;stroke-dasharray:6.000000,6.000000;stroke-dashoffset:0.0;stroke-width:0.5;"/>
     </g>
     <g id="line2d_31">
      <g>
       <use style="stroke:#000000;stroke-width:0.5;" x="559.390978568" xlink:href="#mc7db9fdffb" y="324.0"/>
      </g>
     </g>
     <g id="line2d_32">
      <g>
       <use style="stroke:#000000;stroke-width:0.5;" x="559.390978568" xlink:href="#m5a7d422ac3" y="36.0"/>
      </g>
     </g>
     <g id="text_10">
      <!-- $10^{9}$ -->
      <defs>
       <path d="
M35.2031 29.125
C35.2031 7.25 26.0938 0.484375 18.5938 0.484375
C16.2969 0.484375 10.7031 0.484375 8.40625 4.59375
C11 4.1875 12.9062 5.57812 12.9062 8.09375
C12.9062 10.8125 10.7031 11.7031 9.29688 11.7031
C8.40625 11.7031 5.70312 11.2969 5.70312 7.90625
C5.70312 1.10938 11.5938 -2 18.7969 -2
C30.2969 -2 42 10.5312 42 32.3906
C42 59.6406 30.7969 65.2969 23.2031 65.2969
C13.2969 65.2969 3.79688 56.6875 3.79688 43.4062
C3.79688 31.1094 11.9062 22 22.0938 22
C30.5 22 34.2031 29.7344 35.2031 33
z

M22.2969 23.5938
C19.5938 23.5938 15.7969 24.0938 12.7031 30.0312
C10.5938 33.8906 10.5938 38.4531 10.5938 43.2969
C10.5938 49.1562 10.5938 53.2031 13.4062 57.5625
C14.7969 59.6406 17.4062 63 23.2031 63
C35 63 35 45.0781 35 41.125
C35 34.0938 31.7969 23.5938 22.2969 23.5938" id="CMR17-57"/>
      </defs>
      <g transform="translate(551.420896891 336.870650466)scale(0.12 -0.12)">
       <use transform="scale(0.9962640099626402)" xlink:href="#CMR17-49"/>
       <use transform="translate(45.69047711706103 0.0)scale(0.9962640099626402)" xlink:href="#CMR17-48"/>
       <use transform="translate(91.38095423412206 36.15363894185866)scale(0.6973817666173724)" xlink:href="#CMR17-57"/>
      </g>
     </g>
    </g>
    <g id="xtick_11">
     <g id="line2d_33">
      <path clip-path="url(#pc897140274)" d="
M611.546 324
L611.546 36" style="fill:none;stroke:#808080;stroke-dasharray:6.000000,6.000000;stroke-dashoffset:0.0;stroke-width:0.5;"/>
     </g>
     <g id="line2d_34">
      <g>
       <use style="stroke:#000000;stroke-width:0.5;" x="611.545531742" xlink:href="#mc7db9fdffb" y="324.0"/>
      </g>
     </g>
     <g id="line2d_35">
      <g>
       <use style="stroke:#000000;stroke-width:0.5;" x="611.545531742" xlink:href="#m5a7d422ac3" y="36.0"/>
      </g>
     </g>
     <g id="text_11">
      <!-- $10^{10}$ -->
      <g transform="translate(601.458358641 336.870650466)scale(0.12 -0.12)">
       <use transform="scale(0.9962640099626402)" xlink:href="#CMR17-49"/>
       <use transform="translate(45.69047711706103 0.0)scale(0.9962640099626402)" xlink:href="#CMR17-48"/>
       <use transform="translate(91.38095423412206 36.15363894185866)scale(0.6973817666173724)" xlink:href="#CMR17-49"/>
       <use transform="translate(123.36413619824098 36.15363894185866)scale(0.6973817666173724)" xlink:href="#CMR17-48"/>
      </g>
     </g>
    </g>
    <g id="xtick_12">
     <g id="line2d_36">
      <defs>
       <path d="
M0 0
L0 -2" id="mc21db286a6" style="stroke:#000000;stroke-width:0.5;"/>
      </defs>
      <g>
       <use style="stroke:#000000;stroke-width:0.5;" x="105.700084916" xlink:href="#mc21db286a6" y="324.0"/>
      </g>
     </g>
     <g id="line2d_37">
      <defs>
       <path d="
M0 0
L0 2" id="ma9c915e141" style="stroke:#000000;stroke-width:0.5;"/>
      </defs>
      <g>
       <use style="stroke:#000000;stroke-width:0.5;" x="105.700084916" xlink:href="#ma9c915e141" y="36.0"/>
      </g>
     </g>
    </g>
    <g id="xtick_13">
     <g id="line2d_38">
      <g>
       <use style="stroke:#000000;stroke-width:0.5;" x="121.400169832" xlink:href="#mc21db286a6" y="324.0"/>
      </g>
     </g>
     <g id="line2d_39">
      <g>
       <use style="stroke:#000000;stroke-width:0.5;" x="121.400169832" xlink:href="#ma9c915e141" y="36.0"/>
      </g>
     </g>
    </g>
    <g id="xtick_14">
     <g id="line2d_40">
      <g>
       <use style="stroke:#000000;stroke-width:0.5;" x="130.584130766" xlink:href="#mc21db286a6" y="324.0"/>
      </g>
     </g>
     <g id="line2d_41">
      <g>
       <use style="stroke:#000000;stroke-width:0.5;" x="130.584130766" xlink:href="#ma9c915e141" y="36.0"/>
      </g>
     </g>
    </g>
    <g id="xtick_15">
     <g id="line2d_42">
      <g>
       <use style="stroke:#000000;stroke-width:0.5;" x="137.100254748" xlink:href="#mc21db286a6" y="324.0"/>
      </g>
     </g>
     <g id="line2d_43">
      <g>
       <use style="stroke:#000000;stroke-width:0.5;" x="137.100254748" xlink:href="#ma9c915e141" y="36.0"/>
      </g>
     </g>
    </g>
    <g id="xtick_16">
     <g id="line2d_44">
      <g>
       <use style="stroke:#000000;stroke-width:0.5;" x="157.85463809" xlink:href="#mc21db286a6" y="324.0"/>
      </g>
     </g>
     <g id="line2d_45">
      <g>
       <use style="stroke:#000000;stroke-width:0.5;" x="157.85463809" xlink:href="#ma9c915e141" y="36.0"/>
      </g>
     </g>
    </g>
    <g id="xtick_17">
     <g id="line2d_46">
      <g>
       <use style="stroke:#000000;stroke-width:0.5;" x="173.554723006" xlink:href="#mc21db286a6" y="324.0"/>
      </g>
     </g>
     <g id="line2d_47">
      <g>
       <use style="stroke:#000000;stroke-width:0.5;" x="173.554723006" xlink:href="#ma9c915e141" y="36.0"/>
      </g>
     </g>
    </g>
    <g id="xtick_18">
     <g id="line2d_48">
      <g>
       <use style="stroke:#000000;stroke-width:0.5;" x="182.73868394" xlink:href="#mc21db286a6" y="324.0"/>
      </g>
     </g>
     <g id="line2d_49">
      <g>
       <use style="stroke:#000000;stroke-width:0.5;" x="182.73868394" xlink:href="#ma9c915e141" y="36.0"/>
      </g>
     </g>
    </g>
    <g id="xtick_19">
     <g id="line2d_50">
      <g>
       <use style="stroke:#000000;stroke-width:0.5;" x="189.254807922" xlink:href="#mc21db286a6" y="324.0"/>
      </g>
     </g>
     <g id="line2d_51">
      <g>
       <use style="stroke:#000000;stroke-width:0.5;" x="189.254807922" xlink:href="#ma9c915e141" y="36.0"/>
      </g>
     </g>
    </g>
    <g id="xtick_20">
     <g id="line2d_52">
      <g>
       <use style="stroke:#000000;stroke-width:0.5;" x="210.009191264" xlink:href="#mc21db286a6" y="324.0"/>
      </g>
     </g>
     <g id="line2d_53">
      <g>
       <use style="stroke:#000000;stroke-width:0.5;" x="210.009191264" xlink:href="#ma9c915e141" y="36.0"/>
      </g>
     </g>
    </g>
    <g id="xtick_21">
     <g id="line2d_54">
      <g>
       <use style="stroke:#000000;stroke-width:0.5;" x="225.70927618" xlink:href="#mc21db286a6" y="324.0"/>
      </g>
     </g>
     <g id="line2d_55">
      <g>
       <use style="stroke:#000000;stroke-width:0.5;" x="225.70927618" xlink:href="#ma9c915e141" y="36.0"/>
      </g>
     </g>
    </g>
    <g id="xtick_22">
     <g id="line2d_56">
      <g>
       <use style="stroke:#000000;stroke-width:0.5;" x="234.893237114" xlink:href="#mc21db286a6" y="324.0"/>
      </g>
     </g>
     <g id="line2d_57">
      <g>
       <use style="stroke:#000000;stroke-width:0.5;" x="234.893237114" xlink:href="#ma9c915e141" y="36.0"/>
      </g>
     </g>
    </g>
    <g id="xtick_23">
     <g id="line2d_58">
      <g>
       <use style="stroke:#000000;stroke-width:0.5;" x="241.409361096" xlink:href="#mc21db286a6" y="324.0"/>
      </g>
     </g>
     <g id="line2d_59">
      <g>
       <use style="stroke:#000000;stroke-width:0.5;" x="241.409361096" xlink:href="#ma9c915e141" y="36.0"/>
      </g>
     </g>
    </g>
    <g id="xtick_24">
     <g id="line2d_60">
      <g>
       <use style="stroke:#000000;stroke-width:0.5;" x="262.163744438" xlink:href="#mc21db286a6" y="324.0"/>
      </g>
     </g>
     <g id="line2d_61">
      <g>
       <use style="stroke:#000000;stroke-width:0.5;" x="262.163744438" xlink:href="#ma9c915e141" y="36.0"/>
      </g>
     </g>
    </g>
    <g id="xtick_25">
     <g id="line2d_62">
      <g>
       <use style="stroke:#000000;stroke-width:0.5;" x="277.863829354" xlink:href="#mc21db286a6" y="324.0"/>
      </g>
     </g>
     <g id="line2d_63">
      <g>
       <use style="stroke:#000000;stroke-width:0.5;" x="277.863829354" xlink:href="#ma9c915e141" y="36.0"/>
      </g>
     </g>
    </g>
    <g id="xtick_26">
     <g id="line2d_64">
      <g>
       <use style="stroke:#000000;stroke-width:0.5;" x="287.047790288" xlink:href="#mc21db286a6" y="324.0"/>
      </g>
     </g>
     <g id="line2d_65">
      <g>
       <use style="stroke:#000000;stroke-width:0.5;" x="287.047790288" xlink:href="#ma9c915e141" y="36.0"/>
      </g>
     </g>
    </g>
    <g id="xtick_27">
     <g id="line2d_66">
      <g>
       <use style="stroke:#000000;stroke-width:0.5;" x="293.56391427" xlink:href="#mc21db286a6" y="324.0"/>
      </g>
     </g>
     <g id="line2d_67">
      <g>
       <use style="stroke:#000000;stroke-width:0.5;" x="293.56391427" xlink:href="#ma9c915e141" y="36.0"/>
      </g>
     </g>
    </g>
    <g id="xtick_28">
     <g id="line2d_68">
      <g>
       <use style="stroke:#000000;stroke-width:0.5;" x="314.318297613" xlink:href="#mc21db286a6" y="324.0"/>
      </g>
     </g>
     <g id="line2d_69">
      <g>
       <use style="stroke:#000000;stroke-width:0.5;" x="314.318297613" xlink:href="#ma9c915e141" y="36.0"/>
      </g>
     </g>
    </g>
    <g id="xtick_29">
     <g id="line2d_70">
      <g>
       <use style="stroke:#000000;stroke-width:0.5;" x="330.018382528" xlink:href="#mc21db286a6" y="324.0"/>
      </g>
     </g>
     <g id="line2d_71">
      <g>
       <use style="stroke:#000000;stroke-width:0.5;" x="330.018382528" xlink:href="#ma9c915e141" y="36.0"/>
      </g>
     </g>
    </g>
    <g id="xtick_30">
     <g id="line2d_72">
      <g>
       <use style="stroke:#000000;stroke-width:0.5;" x="339.202343462" xlink:href="#mc21db286a6" y="324.0"/>
      </g>
     </g>
     <g id="line2d_73">
      <g>
       <use style="stroke:#000000;stroke-width:0.5;" x="339.202343462" xlink:href="#ma9c915e141" y="36.0"/>
      </g>
     </g>
    </g>
    <g id="xtick_31">
     <g id="line2d_74">
      <g>
       <use style="stroke:#000000;stroke-width:0.5;" x="345.718467444" xlink:href="#mc21db286a6" y="324.0"/>
      </g>
     </g>
     <g id="line2d_75">
      <g>
       <use style="stroke:#000000;stroke-width:0.5;" x="345.718467444" xlink:href="#ma9c915e141" y="36.0"/>
      </g>
     </g>
    </g>
    <g id="xtick_32">
     <g id="line2d_76">
      <g>
       <use style="stroke:#000000;stroke-width:0.5;" x="366.472850787" xlink:href="#mc21db286a6" y="324.0"/>
      </g>
     </g>
     <g id="line2d_77">
      <g>
       <use style="stroke:#000000;stroke-width:0.5;" x="366.472850787" xlink:href="#ma9c915e141" y="36.0"/>
      </g>
     </g>
    </g>
    <g id="xtick_33">
     <g id="line2d_78">
      <g>
       <use style="stroke:#000000;stroke-width:0.5;" x="382.172935703" xlink:href="#mc21db286a6" y="324.0"/>
      </g>
     </g>
     <g id="line2d_79">
      <g>
       <use style="stroke:#000000;stroke-width:0.5;" x="382.172935703" xlink:href="#ma9c915e141" y="36.0"/>
      </g>
     </g>
    </g>
    <g id="xtick_34">
     <g id="line2d_80">
      <g>
       <use style="stroke:#000000;stroke-width:0.5;" x="391.356896637" xlink:href="#mc21db286a6" y="324.0"/>
      </g>
     </g>
     <g id="line2d_81">
      <g>
       <use style="stroke:#000000;stroke-width:0.5;" x="391.356896637" xlink:href="#ma9c915e141" y="36.0"/>
      </g>
     </g>
    </g>
    <g id="xtick_35">
     <g id="line2d_82">
      <g>
       <use style="stroke:#000000;stroke-width:0.5;" x="397.873020618" xlink:href="#mc21db286a6" y="324.0"/>
      </g>
     </g>
     <g id="line2d_83">
      <g>
       <use style="stroke:#000000;stroke-width:0.5;" x="397.873020618" xlink:href="#ma9c915e141" y="36.0"/>
      </g>
     </g>
    </g>
    <g id="xtick_36">
     <g id="line2d_84">
      <g>
       <use style="stroke:#000000;stroke-width:0.5;" x="418.627403961" xlink:href="#mc21db286a6" y="324.0"/>
      </g>
     </g>
     <g id="line2d_85">
      <g>
       <use style="stroke:#000000;stroke-width:0.5;" x="418.627403961" xlink:href="#ma9c915e141" y="36.0"/>
      </g>
     </g>
    </g>
    <g id="xtick_37">
     <g id="line2d_86">
      <g>
       <use style="stroke:#000000;stroke-width:0.5;" x="434.327488877" xlink:href="#mc21db286a6" y="324.0"/>
      </g>
     </g>
     <g id="line2d_87">
      <g>
       <use style="stroke:#000000;stroke-width:0.5;" x="434.327488877" xlink:href="#ma9c915e141" y="36.0"/>
      </g>
     </g>
    </g>
    <g id="xtick_38">
     <g id="line2d_88">
      <g>
       <use style="stroke:#000000;stroke-width:0.5;" x="443.511449811" xlink:href="#mc21db286a6" y="324.0"/>
      </g>
     </g>
     <g id="line2d_89">
      <g>
       <use style="stroke:#000000;stroke-width:0.5;" x="443.511449811" xlink:href="#ma9c915e141" y="36.0"/>
      </g>
     </g>
    </g>
    <g id="xtick_39">
     <g id="line2d_90">
      <g>
       <use style="stroke:#000000;stroke-width:0.5;" x="450.027573793" xlink:href="#mc21db286a6" y="324.0"/>
      </g>
     </g>
     <g id="line2d_91">
      <g>
       <use style="stroke:#000000;stroke-width:0.5;" x="450.027573793" xlink:href="#ma9c915e141" y="36.0"/>
      </g>
     </g>
    </g>
    <g id="xtick_40">
     <g id="line2d_92">
      <g>
       <use style="stroke:#000000;stroke-width:0.5;" x="470.781957135" xlink:href="#mc21db286a6" y="324.0"/>
      </g>
     </g>
     <g id="line2d_93">
      <g>
       <use style="stroke:#000000;stroke-width:0.5;" x="470.781957135" xlink:href="#ma9c915e141" y="36.0"/>
      </g>
     </g>
    </g>
    <g id="xtick_41">
     <g id="line2d_94">
      <g>
       <use style="stroke:#000000;stroke-width:0.5;" x="486.482042051" xlink:href="#mc21db286a6" y="324.0"/>
      </g>
     </g>
     <g id="line2d_95">
      <g>
       <use style="stroke:#000000;stroke-width:0.5;" x="486.482042051" xlink:href="#ma9c915e141" y="36.0"/>
      </g>
     </g>
    </g>
    <g id="xtick_42">
     <g id="line2d_96">
      <g>
       <use style="stroke:#000000;stroke-width:0.5;" x="495.666002985" xlink:href="#mc21db286a6" y="324.0"/>
      </g>
     </g>
     <g id="line2d_97">
      <g>
       <use style="stroke:#000000;stroke-width:0.5;" x="495.666002985" xlink:href="#ma9c915e141" y="36.0"/>
      </g>
     </g>
    </g>
    <g id="xtick_43">
     <g id="line2d_98">
      <g>
       <use style="stroke:#000000;stroke-width:0.5;" x="502.182126967" xlink:href="#mc21db286a6" y="324.0"/>
      </g>
     </g>
     <g id="line2d_99">
      <g>
       <use style="stroke:#000000;stroke-width:0.5;" x="502.182126967" xlink:href="#ma9c915e141" y="36.0"/>
      </g>
     </g>
    </g>
    <g id="xtick_44">
     <g id="line2d_100">
      <g>
       <use style="stroke:#000000;stroke-width:0.5;" x="522.936510309" xlink:href="#mc21db286a6" y="324.0"/>
      </g>
     </g>
     <g id="line2d_101">
      <g>
       <use style="stroke:#000000;stroke-width:0.5;" x="522.936510309" xlink:href="#ma9c915e141" y="36.0"/>
      </g>
     </g>
    </g>
    <g id="xtick_45">
     <g id="line2d_102">
      <g>
       <use style="stroke:#000000;stroke-width:0.5;" x="538.636595225" xlink:href="#mc21db286a6" y="324.0"/>
      </g>
     </g>
     <g id="line2d_103">
      <g>
       <use style="stroke:#000000;stroke-width:0.5;" x="538.636595225" xlink:href="#ma9c915e141" y="36.0"/>
      </g>
     </g>
    </g>
    <g id="xtick_46">
     <g id="line2d_104">
      <g>
       <use style="stroke:#000000;stroke-width:0.5;" x="547.820556159" xlink:href="#mc21db286a6" y="324.0"/>
      </g>
     </g>
     <g id="line2d_105">
      <g>
       <use style="stroke:#000000;stroke-width:0.5;" x="547.820556159" xlink:href="#ma9c915e141" y="36.0"/>
      </g>
     </g>
    </g>
    <g id="xtick_47">
     <g id="line2d_106">
      <g>
       <use style="stroke:#000000;stroke-width:0.5;" x="554.336680141" xlink:href="#mc21db286a6" y="324.0"/>
      </g>
     </g>
     <g id="line2d_107">
      <g>
       <use style="stroke:#000000;stroke-width:0.5;" x="554.336680141" xlink:href="#ma9c915e141" y="36.0"/>
      </g>
     </g>
    </g>
    <g id="xtick_48">
     <g id="line2d_108">
      <g>
       <use style="stroke:#000000;stroke-width:0.5;" x="575.091063483" xlink:href="#mc21db286a6" y="324.0"/>
      </g>
     </g>
     <g id="line2d_109">
      <g>
       <use style="stroke:#000000;stroke-width:0.5;" x="575.091063483" xlink:href="#ma9c915e141" y="36.0"/>
      </g>
     </g>
    </g>
    <g id="xtick_49">
     <g id="line2d_110">
      <g>
       <use style="stroke:#000000;stroke-width:0.5;" x="590.791148399" xlink:href="#mc21db286a6" y="324.0"/>
      </g>
     </g>
     <g id="line2d_111">
      <g>
       <use style="stroke:#000000;stroke-width:0.5;" x="590.791148399" xlink:href="#ma9c915e141" y="36.0"/>
      </g>
     </g>
    </g>
    <g id="xtick_50">
     <g id="line2d_112">
      <g>
       <use style="stroke:#000000;stroke-width:0.5;" x="599.975109333" xlink:href="#mc21db286a6" y="324.0"/>
      </g>
     </g>
     <g id="line2d_113">
      <g>
       <use style="stroke:#000000;stroke-width:0.5;" x="599.975109333" xlink:href="#ma9c915e141" y="36.0"/>
      </g>
     </g>
    </g>
    <g id="xtick_51">
     <g id="line2d_114">
      <g>
       <use style="stroke:#000000;stroke-width:0.5;" x="606.491233315" xlink:href="#mc21db286a6" y="324.0"/>
      </g>
     </g>
     <g id="line2d_115">
      <g>
       <use style="stroke:#000000;stroke-width:0.5;" x="606.491233315" xlink:href="#ma9c915e141" y="36.0"/>
      </g>
     </g>
    </g>
    <g id="xtick_52">
     <g id="line2d_116">
      <g>
       <use style="stroke:#000000;stroke-width:0.5;" x="627.245616658" xlink:href="#mc21db286a6" y="324.0"/>
      </g>
     </g>
     <g id="line2d_117">
      <g>
       <use style="stroke:#000000;stroke-width:0.5;" x="627.245616658" xlink:href="#ma9c915e141" y="36.0"/>
      </g>
     </g>
    </g>
    <g id="xtick_53">
     <g id="line2d_118">
      <g>
       <use style="stroke:#000000;stroke-width:0.5;" x="642.945701573" xlink:href="#mc21db286a6" y="324.0"/>
      </g>
     </g>
     <g id="line2d_119">
      <g>
       <use style="stroke:#000000;stroke-width:0.5;" x="642.945701573" xlink:href="#ma9c915e141" y="36.0"/>
      </g>
     </g>
    </g>
    <g id="text_12">
     <!-- cardinality -->
     <defs>
      <path d="
M19.4062 47
L19.4062 67
L15.2969 67
C14.2969 53.875 9.90625 47.1875 1.79688 46.5938
L1.79688 42.7031
L10 42.7031
L10 17.2656
C10 10.2812 10.2031 7.78125 11.2031 5.48438
C12.7969 1.29688 16.7969 -1 22.5938 -1
C26.5 -1 29.9062 0.203125 32.2031 2.39062
C35.5 5.59375 37.4062 10.875 37.4062 16.375
C37.4062 16.9688 37.4062 17.6719 37.2969 18.6719
L33.0938 18.6719
C32.7969 9.6875 30.2031 5.09375 25.2969 5.09375
C23 5.09375 21 6.28125 20.2969 7.98438
C19.7031 9.375 19.4062 11.875 19.4062 15.4688
L19.4062 42.7031
L34.0938 42.7031
L34.0938 47
z
" id="Century_Schoolbook_L_Roman-116"/>
      <path d="
M45.2031 32.5781
C45.2031 38.7969 44.0938 41.9688 41.2031 44.3438
C37.9062 46.9062 33 48.2812 26.5938 48.2812
C15.4062 48.2812 7.09375 43.0469 7.09375 35.9219
C7.09375 32.1562 9.40625 29.7812 12.9062 29.7812
C16 29.7812 18.2969 31.8594 18.2969 34.8125
C18.2969 36.1094 17.7969 37.4844 16.7969 38.875
C16.2031 39.5469 16.0938 39.8438 16.0938 40.1562
C16.0938 42.2188 20.2031 44 25 44
C28.0938 44 31.5938 43.0156 33.2031 41.5312
C35.0938 39.9531 35.7969 37.5781 35.7969 33.125
L35.7969 29.2812
C25.2969 27.4844 22.0938 26.6875 17.2031 24.8125
C8.59375 21.6094 4.40625 16.9375 4.40625 10.6562
C4.40625 3.57812 10.0938 -1 18.9062 -1
C25.7969 -1 32 1.85938 36.2969 7.0625
C37.9062 1.98438 40.4062 0 45.0938 0
C49.5938 0 54.2969 2.90625 54.2969 5.78125
C54.2969 6.46875 53.7969 6.96875 53.2969 6.96875
C52.9062 6.96875 52.5 6.875 51.7969 6.57812
C50.2031 6 49.7969 5.89062 49 5.89062
C46.2031 5.89062 45.2031 7.78125 45.2031 12.7188
z

M35.7969 20.4688
C35.7969 14.4688 35.5 13.0781 33.7969 10.4844
C31.2969 6.78125 26.7031 4.29688 22.4062 4.29688
C17.9062 4.29688 14.5 7.59375 14.5 12.0781
C14.5 16.2656 16.5938 19.2656 21 21.3594
C24.0938 22.75 28 23.75 35.7969 25.0469
z
" id="Century_Schoolbook_L_Roman-97"/>
      <path d="
M20 46
L2.70312 46
L2.70312 41.2188
L6.29688 41.2188
C10 41.2188 10.5938 40.5156 10.5938 36.2031
L10.5938 12.2969
L10.5938 8.29688
C10.5938 4.29688 9.5 3.59375 3.09375 3.59375
L2.70312 3.59375
L2.70312 0
L28 0
L28 3.59375
L27.5938 3.59375
C21.0938 3.59375 20 4.29688 20 8.28125
L20 12.2812
L20 22.6562
C20 27.5469 20.7031 32.0312 21.7969 34.3281
C23.9062 38.8281 28.4062 41.9219 32.7031 41.9219
C35.2969 41.9219 38.2969 40.4219 39.7969 38.4219
C41.2969 36.3281 42 33.2344 42 28.4375
L42 12.2812
L42 8.28125
C42 4.29688 40.9062 3.59375 34.4062 3.59375
L34 3.59375
L34 0
L59.2969 0
L59.2969 3.59375
L58.9062 3.59375
C52.5 3.59375 51.4062 4.29688 51.4062 8.28125
L51.4062 12.2812
L51.4062 27.9531
C51.4062 35.125 51.0938 36.9219 49.2969 40.3281
C46.7969 45.1094 41.7031 48 35.7969 48
C29.4062 48 24.4062 45.0469 20 38.5156
z
" id="Century_Schoolbook_L_Roman-110"/>
      <path d="
M20.4062 73
L1.90625 73
L1.90625 68.2188
L6.79688 68.2188
C10.4062 68.2188 11 67.5156 11 63.2188
L11 12.2812
L11 8.28125
C11 4.29688 9.90625 3.59375 3.5 3.59375
L2.79688 3.59375
L2.79688 0
L28.7031 0
L28.7031 3.59375
L28 3.59375
C21.5 3.59375 20.4062 4.29688 20.4062 8.25
L20.4062 12.2188
z
" id="Century_Schoolbook_L_Roman-108"/>
      <path d="
M38 0
L55.4062 0
L55.4062 4.70312
L53.5938 4.70312
C48.2031 4.70312 47.4062 5.70312 47.4062 11.9688
L47.4062 73.7812
L27.7969 73.7812
L27.7969 69
L33.7031 69
C37.2969 69 38 68.2812 38 63.9219
L38 41
C34.2969 46.0938 30 48.3906 24.2031 48.3906
C12.9062 48.3906 4.29688 37.5469 4.29688 23.2031
C4.29688 9.0625 12.5938 -1 24.2031 -1
C30.5 -1 34.7969 1.67188 38 7.59375
z

M26.2031 43
C30.2969 43 34.2031 40.0312 36 35.4375
C37.2031 32.4531 37.9062 28.2812 37.9062 23.5156
C37.9062 11.9688 33.2969 4.39062 26.0938 4.39062
C19.0938 4.39062 14.7969 10.9688 14.7969 22.0156
C14.7969 27.8906 15.4062 32.3594 16.7031 35.7344
C18.4062 40.125 22.0938 43 26.2031 43" id="Century_Schoolbook_L_Roman-100"/>
      <path d="
M38.7031 15.1094
C35.5 7.96875 32.0938 5.09375 26.9062 5.09375
C18.9062 5.09375 13.9062 12.3281 13.9062 23.9375
C13.9062 35.9531 18.7969 44 26.2031 44
C29.2031 44 31.7969 42.5938 31.7969 41.0156
C31.7969 40.7188 31.5938 40.4219 31.2031 39.8125
C29.5938 37.9375 29.2031 36.9375 29.2031 35.2656
C29.2031 31.9844 31.7031 29.7031 35.2031 29.7031
C38.7031 29.7031 41.2969 32.4844 41.2969 36.4531
C41.2969 43.1094 34.5938 48.2812 25.7031 48.2812
C12.7031 48.2812 3.40625 37.6562 3.40625 22.8438
C3.40625 8.73438 11.9062 -1 24.2969 -1
C33.2031 -1 38.2969 3.07812 42.5938 13.625
z
" id="Century_Schoolbook_L_Roman-99"/>
      <path d="
M30 13.2031
L19 38.8125
C18.5938 39.7031 18.4062 40.4062 18.4062 40.9062
C18.4062 42.7031 19.5938 43.4062 23 43.4062
L25.0938 43.4062
L25.0938 47
L1.29688 47
L1.29688 43.4062
L2.40625 43.4062
C5.59375 43.4062 7.40625 42 9.20312 38.0156
L25.5 1.23438
L23.7969 -2.26562
C20.2031 -9.82812 15.5 -15.1094 12.2969 -15.1094
C11.4062 -15.1094 10.7031 -14.7031 10.7031 -14.125
C10.7031 -13.9219 10.7969 -13.625 10.9062 -13.2188
C11.2031 -12.3281 11.4062 -11.4375 11.4062 -10.625
C11.4062 -8.03125 9.20312 -6.14062 6.29688 -6.14062
C2.79688 -6.14062 0.296875 -8.73438 0.296875 -12.3281
C0.296875 -16.7031 4.20312 -20 9.40625 -20
C14.7031 -20 19.2031 -17.4062 23.2031 -12.0312
C26.2969 -7.84375 28.2969 -3.84375 32.7031 7.21875
L44.0938 35.3281
C46.5938 41.4062 48.7031 43.4062 52.5 43.4062
L53.0938 43.4062
L53.0938 47
L33.0938 47
L33.0938 43.4062
L34.7031 43.4062
C38.5 43.4062 40.0938 42.2969 40.0938 39.7031
C40.0938 38.7031 39.7969 37.4219 39.0938 35.7344
z
" id="Century_Schoolbook_L_Roman-121"/>
      <path d="
M19.7969 46
L2.09375 46
L2.09375 41.2188
L6.20312 41.2188
C9.90625 41.2188 10.5 40.5156 10.5 36.2031
L10.5 12.2969
L10.5 8.29688
C10.5 4.29688 9.40625 3.59375 2.90625 3.59375
L2.5 3.59375
L2.5 0
L29.2031 0
L29.2031 3.59375
L27.2969 3.59375
C20.9062 3.59375 19.7969 4.29688 19.7969 8.29688
L19.7969 12.2969
L19.7969 13.2969
C19.7969 20.8125 21.2031 28.4062 23.7031 34.1094
C26.0938 39.7031 29.5 42.8125 33.7031 43.3125
C32.2969 41.7031 31.9062 40.6875 31.9062 38.7656
C31.9062 35.5469 34.2031 33.2344 37.4062 33.2344
C41 33.2344 43.5 35.9375 43.5 40.0156
C43.5 44.8125 40.0938 48 34.7969 48
C28.5 48 23 42.9219 19.7969 34.1406
z
" id="Century_Schoolbook_L_Roman-114"/>
      <path d="
M20.5938 46
L1.79688 46
L1.79688 41.2188
L6.90625 41.2188
C10.5938 41.2188 11.2031 40.5156 11.2031 36.2031
L11.2031 12.2969
L11.2031 8.29688
C11.2031 4.29688 10.0938 3.59375 3.70312 3.59375
L3 3.59375
L3 0
L28.9062 0
L28.9062 3.59375
L28.2031 3.59375
C21.7031 3.59375 20.5938 4.28125 20.5938 8.21875
L20.5938 12.1719
z

M15.9062 71.5781
C12.7031 71.5781 10.0938 68.9844 10.0938 65.7969
C10.0938 62.7031 12.7031 60 15.7969 60
C19.0938 60 21.7031 62.5938 21.7031 65.7969
C21.7031 68.9844 19.0938 71.5781 15.9062 71.5781" id="Century_Schoolbook_L_Roman-105"/>
     </defs>
     <g transform="translate(338.777754502 353.012736053)scale(0.12 -0.12)">
      <use transform="scale(0.9962640099626402)" xlink:href="#Century_Schoolbook_L_Roman-99"/>
      <use transform="translate(44.233568697462644 0.0)scale(0.9962640099626402)" xlink:href="#Century_Schoolbook_L_Roman-97"/>
      <use transform="translate(99.62524566080324 0.0)scale(0.9962640099626402)" xlink:href="#Century_Schoolbook_L_Roman-114"/>
      <use transform="translate(143.8588143582659 0.0)scale(0.9962640099626402)" xlink:href="#Century_Schoolbook_L_Roman-100"/>
      <use transform="translate(201.04430164227898 0.0)scale(0.9962640099626402)" xlink:href="#Century_Schoolbook_L_Roman-105"/>
      <use transform="translate(232.42561463846516 0.0)scale(0.9962640099626402)" xlink:href="#Century_Schoolbook_L_Roman-110"/>
      <use transform="translate(293.29724531541876 0.0)scale(0.9962640099626402)" xlink:href="#Century_Schoolbook_L_Roman-97"/>
      <use transform="translate(348.6889222787594 0.0)scale(0.9962640099626402)" xlink:href="#Century_Schoolbook_L_Roman-108"/>
      <use transform="translate(380.07023527494556 0.0)scale(0.9962640099626402)" xlink:href="#Century_Schoolbook_L_Roman-105"/>
      <use transform="translate(411.45154827113174 0.0)scale(0.9962640099626402)" xlink:href="#Century_Schoolbook_L_Roman-116"/>
      <use transform="translate(450.20525446567564 0.0)scale(0.9962640099626402)" xlink:href="#Century_Schoolbook_L_Roman-121"/>
     </g>
    </g>
   </g>
   <g id="matplotlib.axis_2">
    <g id="ytick_1">
     <g id="line2d_120">
      <path clip-path="url(#pc897140274)" d="
M90 324
L648 324" style="fill:none;stroke:#808080;stroke-dasharray:6.000000,6.000000;stroke-dashoffset:0.0;stroke-width:0.5;"/>
     </g>
     <g id="line2d_121">
      <defs>
       <path d="
M0 0
L4 0" id="md7965d1ba0" style="stroke:#000000;stroke-width:0.5;"/>
      </defs>
      <g>
       <use style="stroke:#000000;stroke-width:0.5;" x="90.0" xlink:href="#md7965d1ba0" y="324.0"/>
      </g>
     </g>
     <g id="line2d_122">
      <defs>
       <path d="
M0 0
L-4 0" id="md9a1c1a7cd" style="stroke:#000000;stroke-width:0.5;"/>
      </defs>
      <g>
       <use style="stroke:#000000;stroke-width:0.5;" x="648.0" xlink:href="#md9a1c1a7cd" y="324.0"/>
      </g>
     </g>
     <g id="text_13">
      <!-- $0$ -->
      <g transform="translate(80.1470097486 327.299607672)scale(0.12 -0.12)">
       <use transform="scale(0.9962640099626402)" xlink:href="#CMR17-48"/>
      </g>
     </g>
    </g>
    <g id="ytick_2">
     <g id="line2d_123">
      <path clip-path="url(#pc897140274)" d="
M90 276
L648 276" style="fill:none;stroke:#808080;stroke-dasharray:6.000000,6.000000;stroke-dashoffset:0.0;stroke-width:0.5;"/>
     </g>
     <g id="line2d_124">
      <g>
       <use style="stroke:#000000;stroke-width:0.5;" x="90.0" xlink:href="#md7965d1ba0" y="276.0"/>
      </g>
     </g>
     <g id="line2d_125">
      <g>
       <use style="stroke:#000000;stroke-width:0.5;" x="648.0" xlink:href="#md9a1c1a7cd" y="276.0"/>
      </g>
     </g>
     <g id="text_14">
      <!-- $10$ -->
      <g transform="translate(74.2940194972 279.299607672)scale(0.12 -0.12)">
       <use transform="scale(0.9962640099626402)" xlink:href="#CMR17-49"/>
       <use transform="translate(45.69047711706103 0.0)scale(0.9962640099626402)" xlink:href="#CMR17-48"/>
      </g>
     </g>
    </g>
    <g id="ytick_3">
     <g id="line2d_126">
      <path clip-path="url(#pc897140274)" d="
M90 228
L648 228" style="fill:none;stroke:#808080;stroke-dasharray:6.000000,6.000000;stroke-dashoffset:0.0;stroke-width:0.5;"/>
     </g>
     <g id="line2d_127">
      <g>
       <use style="stroke:#000000;stroke-width:0.5;" x="90.0" xlink:href="#md7965d1ba0" y="228.0"/>
      </g>
     </g>
     <g id="line2d_128">
      <g>
       <use style="stroke:#000000;stroke-width:0.5;" x="648.0" xlink:href="#md9a1c1a7cd" y="228.0"/>
      </g>
     </g>
     <g id="text_15">
      <!-- $20$ -->
      <g transform="translate(74.2940194972 231.299607672)scale(0.12 -0.12)">
       <use transform="scale(0.9962640099626402)" xlink:href="#CMR17-50"/>
       <use transform="translate(45.69047711706103 0.0)scale(0.9962640099626402)" xlink:href="#CMR17-48"/>
      </g>
     </g>
    </g>
    <g id="ytick_4">
     <g id="line2d_129">
      <path clip-path="url(#pc897140274)" d="
M90 180
L648 180" style="fill:none;stroke:#808080;stroke-dasharray:6.000000,6.000000;stroke-dashoffset:0.0;stroke-width:0.5;"/>
     </g>
     <g id="line2d_130">
      <g>
       <use style="stroke:#000000;stroke-width:0.5;" x="90.0" xlink:href="#md7965d1ba0" y="180.0"/>
      </g>
     </g>
     <g id="line2d_131">
      <g>
       <use style="stroke:#000000;stroke-width:0.5;" x="648.0" xlink:href="#md9a1c1a7cd" y="180.0"/>
      </g>
     </g>
     <g id="text_16">
      <!-- $30$ -->
      <g transform="translate(74.2940194972 183.299607672)scale(0.12 -0.12)">
       <use transform="scale(0.9962640099626402)" xlink:href="#CMR17-51"/>
       <use transform="translate(45.69047711706103 0.0)scale(0.9962640099626402)" xlink:href="#CMR17-48"/>
      </g>
     </g>
    </g>
    <g id="ytick_5">
     <g id="line2d_132">
      <path clip-path="url(#pc897140274)" d="
M90 132
L648 132" style="fill:none;stroke:#808080;stroke-dasharray:6.000000,6.000000;stroke-dashoffset:0.0;stroke-width:0.5;"/>
     </g>
     <g id="line2d_133">
      <g>
       <use style="stroke:#000000;stroke-width:0.5;" x="90.0" xlink:href="#md7965d1ba0" y="132.0"/>
      </g>
     </g>
     <g id="line2d_134">
      <g>
       <use style="stroke:#000000;stroke-width:0.5;" x="648.0" xlink:href="#md9a1c1a7cd" y="132.0"/>
      </g>
     </g>
     <g id="text_17">
      <!-- $40$ -->
      <g transform="translate(74.2940194972 135.299607672)scale(0.12 -0.12)">
       <use transform="scale(0.9962640099626402)" xlink:href="#CMR17-52"/>
       <use transform="translate(45.69047711706103 0.0)scale(0.9962640099626402)" xlink:href="#CMR17-48"/>
      </g>
     </g>
    </g>
    <g id="ytick_6">
     <g id="line2d_135">
      <path clip-path="url(#pc897140274)" d="
M90 84
L648 84" style="fill:none;stroke:#808080;stroke-dasharray:6.000000,6.000000;stroke-dashoffset:0.0;stroke-width:0.5;"/>
     </g>
     <g id="line2d_136">
      <g>
       <use style="stroke:#000000;stroke-width:0.5;" x="90.0" xlink:href="#md7965d1ba0" y="84.0"/>
      </g>
     </g>
     <g id="line2d_137">
      <g>
       <use style="stroke:#000000;stroke-width:0.5;" x="648.0" xlink:href="#md9a1c1a7cd" y="84.0"/>
      </g>
     </g>
     <g id="text_18">
      <!-- $50$ -->
      <g transform="translate(74.2940194972 87.2996076724)scale(0.12 -0.12)">
       <use transform="scale(0.9962640099626402)" xlink:href="#CMR17-53"/>
       <use transform="translate(45.69047711706103 0.0)scale(0.9962640099626402)" xlink:href="#CMR17-48"/>
      </g>
     </g>
    </g>
    <g id="ytick_7">
     <g id="line2d_138">
      <path clip-path="url(#pc897140274)" d="
M90 36
L648 36" style="fill:none;stroke:#808080;stroke-dasharray:6.000000,6.000000;stroke-dashoffset:0.0;stroke-width:0.5;"/>
     </g>
     <g id="line2d_139">
      <g>
       <use style="stroke:#000000;stroke-width:0.5;" x="90.0" xlink:href="#md7965d1ba0" y="36.0"/>
      </g>
     </g>
     <g id="line2d_140">
      <g>
       <use style="stroke:#000000;stroke-width:0.5;" x="648.0" xlink:href="#md9a1c1a7cd" y="36.0"/>
      </g>
     </g>
     <g id="text_19">
      <!-- $60$ -->
      <g transform="translate(74.2940194972 39.2996076724)scale(0.12 -0.12)">
       <use transform="scale(0.9962640099626402)" xlink:href="#CMR17-54"/>
       <use transform="translate(45.69047711706103 0.0)scale(0.9962640099626402)" xlink:href="#CMR17-48"/>
      </g>
     </g>
    </g>
    <g id="text_20">
     <!-- inner loop 2 iterations -->
     <defs>
      <path d="
M39 48
L35.5 48
L32.5938 44.4062
C29 47.2031 25.4062 48.3906 20.4062 48.3906
C11.5938 48.3906 5.79688 42.625 5.79688 33.9531
C5.79688 30.0781 7.09375 26.7812 9.29688 24.8125
C11.5938 22.7031 13.9062 21.7188 19.9062 20.3125
L25.2031 19.125
C33.0938 17.2344 35.9062 15.2344 35.9062 11.2656
C35.9062 6.57812 31.7969 3.29688 25.9062 3.29688
C17.5 3.29688 11.5 8.76562 9.09375 18.875
L5.09375 18.875
L5.09375 0
L8.59375 0
L12.0938 3.90625
C16.2031 0.59375 20.7969 -1 25.7969 -1
C35.5938 -1 42.0938 5.07812 42.0938 14.3438
C42.0938 18.7188 40.7031 22.0938 37.9062 24.3906
C35.5 26.4844 33.5 27.2812 27.4062 28.5625
L22.4062 29.6719
C16.9062 30.8594 16.9062 30.8594 15.0938 31.8594
C12.9062 32.8594 11.5938 34.9375 11.5938 37.1406
C11.5938 41.1094 15.4062 44 20.9062 44
C24.7031 44 27.7969 42.7031 30.5938 40.0156
C32.7969 37.8125 33.9062 35.8281 35.5 31.2344
L39 31.2344
z
" id="Century_Schoolbook_L_Roman-115"/>
      <path d="
M20.0938 46
L2.79688 46
L2.79688 41.2188
L6.40625 41.2188
C10.0938 41.2188 10.7031 40.5156 10.7031 36.2188
L10.7031 -7.75
L10.7031 -11.7188
C10.7031 -15.7188 9.59375 -16.4062 3.20312 -16.4062
L2.79688 -16.4062
L2.79688 -20
L28.7969 -20
L28.7969 -16.4062
L27.7031 -16.4062
C21.2031 -16.4062 20.0938 -15.7188 20.0938 -11.7344
L20.0938 -7.75
L20.0938 6.6875
C23.4062 0.90625 27.2031 -1.39062 33.2969 -1.39062
C44.9062 -1.39062 53.5 9.26562 53.5 23.5
C53.5 37.2656 44.9062 48 33.9062 48
C27.7031 48 23.5938 45.4375 20.0938 39.5156
z

M32.0938 42.6094
C39 42.6094 43 35.75 43 24.0938
C43 11.2656 38.9062 4 31.7969 4
C24.7031 4 20 11.375 20 22.8125
C20 35.1406 24.5 42.6094 32.0938 42.6094" id="Century_Schoolbook_L_Roman-112"/>
      <path d="
M25.2031 48.2812
C13 48.2812 3.40625 37.4531 3.40625 23.5469
C3.40625 9.9375 13 -1 25 -1
C37 -1 46.5938 9.9375 46.5938 23.6406
C46.5938 37.25 37 48.2812 25.2031 48.2812
M25.2031 44
C32.2031 44 36.0938 36.7344 36.0938 23.6406
C36.0938 10.4531 32.2031 3.29688 25 3.29688
C17.7969 3.29688 13.9062 10.4531 13.9062 23.5469
C13.9062 37.0469 17.7031 44 25.2031 44" id="Century_Schoolbook_L_Roman-111"/>
      <path d="
M46.5 23
C46.5938 37.8125 38.0938 48.2812 25.9062 48.2812
C13.0938 48.2812 3.5 37.25 3.5 22.3438
C3.5 8.4375 12.5938 -1 26.0938 -1
C35.5938 -1 42.4062 3.6875 46.5 13.1875
L43 15.0938
C38.9062 7.39062 34.7031 4.39062 28 4.39062
C22.9062 4.39062 19.2031 6.59375 16.5938 11
C14.7969 14 14 17.5 14.0938 23
z

M14.2031 27.2969
C14.2031 30.3438 14.5938 32.5 15.5938 35.25
C17.7031 41.1406 20.9062 44 25.7031 44
C31.7969 44 35.7969 38.7812 35.7969 30.9219
C35.7969 28.0781 34.9062 27.2969 31.7031 27.2969
z
" id="Century_Schoolbook_L_Roman-101"/>
      <path d="
M50.5 21.5625
L46.0938 21.5625
L45.0938 16.4688
C43.7969 10.0781 43 9.375 36.7969 9.375
L14.4062 9.375
C21.2969 16.5625 23.5938 18.6562 30 23.6562
C39.0938 30.6562 43 34.1562 45.2969 37.1406
C48.5 41.5312 50.0938 46.0312 50.0938 50.8125
C50.0938 62.1094 40.5938 70.2969 27.5938 70.2969
C14.9062 70.2969 5.09375 62.1094 5.09375 51.5156
C5.09375 45.2344 8.29688 40.9375 13.0938 40.9375
C16.7969 40.9375 19.2969 43.4375 19.2969 47.0312
C19.2969 49.5156 17.9062 51.8125 15.7031 52.7188
C12 54.3281 11.7969 54.4219 11.7969 55.7188
C11.7969 57.2188 12.7969 59.5156 14.2031 61.2188
C16.7031 64.2031 20.9062 66 25.5938 66
C33.7969 66 38.7969 60.9062 38.7969 52.5312
C38.7969 45.125 35.2969 38.4375 27 29.6562
L21.0938 23.4688
C17.5938 19.7812 15 16.9688 13.2969 15.0781
C9.70312 10.875 7.90625 8.57812 3.5 2.79688
L3.5 0
L48.5938 0
z
" id="Century_Schoolbook_L_Roman-50"/>
     </defs>
     <g transform="translate(67.022584376 241.221606111)rotate(-90.0)scale(0.12 -0.12)">
      <use transform="scale(0.9962640099626402)" xlink:href="#Century_Schoolbook_L_Roman-105"/>
      <use transform="translate(31.38131299618618 0.0)scale(0.9962640099626402)" xlink:href="#Century_Schoolbook_L_Roman-110"/>
      <use transform="translate(92.2529436731398 0.0)scale(0.9962640099626402)" xlink:href="#Century_Schoolbook_L_Roman-110"/>
      <use transform="translate(153.1245743500934 0.0)scale(0.9962640099626402)" xlink:href="#Century_Schoolbook_L_Roman-101"/>
      <use transform="translate(202.93777484822542 0.0)scale(0.9962640099626402)" xlink:href="#Century_Schoolbook_L_Roman-114"/>
      <use transform="translate(274.86651314893373 0.0)scale(0.9962640099626402)" xlink:href="#Century_Schoolbook_L_Roman-108"/>
      <use transform="translate(306.2478261451199 0.0)scale(0.9962640099626402)" xlink:href="#Century_Schoolbook_L_Roman-111"/>
      <use transform="translate(356.0610266432519 0.0)scale(0.9962640099626402)" xlink:href="#Century_Schoolbook_L_Roman-111"/>
      <use transform="translate(405.8742271413839 0.0)scale(0.9962640099626402)" xlink:href="#Century_Schoolbook_L_Roman-112"/>
      <use transform="translate(490.75488402864266 0.0)scale(0.9962640099626402)" xlink:href="#Century_Schoolbook_L_Roman-50"/>
      <use transform="translate(573.8417305952289 0.0)scale(0.9962640099626402)" xlink:href="#Century_Schoolbook_L_Roman-105"/>
      <use transform="translate(605.223043591415 0.0)scale(0.9962640099626402)" xlink:href="#Century_Schoolbook_L_Roman-116"/>
      <use transform="translate(643.976749785959 0.0)scale(0.9962640099626402)" xlink:href="#Century_Schoolbook_L_Roman-101"/>
      <use transform="translate(693.789950284091 0.0)scale(0.9962640099626402)" xlink:href="#Century_Schoolbook_L_Roman-114"/>
      <use transform="translate(738.0235189815536 0.0)scale(0.9962640099626402)" xlink:href="#Century_Schoolbook_L_Roman-97"/>
      <use transform="translate(793.4151959448942 0.0)scale(0.9962640099626402)" xlink:href="#Century_Schoolbook_L_Roman-116"/>
      <use transform="translate(832.1689021394382 0.0)scale(0.9962640099626402)" xlink:href="#Century_Schoolbook_L_Roman-105"/>
      <use transform="translate(863.5502151356243 0.0)scale(0.9962640099626402)" xlink:href="#Century_Schoolbook_L_Roman-111"/>
      <use transform="translate(913.3634156337563 0.0)scale(0.9962640099626402)" xlink:href="#Century_Schoolbook_L_Roman-110"/>
      <use transform="translate(974.2350463107099 0.0)scale(0.9962640099626402)" xlink:href="#Century_Schoolbook_L_Roman-115"/>
     </g>
    </g>
   </g>
   <g id="patch_3">
    <path d="
M90 324
L90 36" style="fill:none;stroke:#000000;"/>
   </g>
   <g id="patch_4">
    <path d="
M90 324
L648 324" style="fill:none;stroke:#000000;"/>
   </g>
   <g id="patch_5">
    <path d="
M648 324
L648 36" style="fill:none;stroke:#000000;"/>
   </g>
   <g id="patch_6">
    <path d="
M90 36
L648 36" style="fill:none;stroke:#000000;"/>
   </g>
   <g id="legend_1">
    <g id="patch_7">
     <path d="
M96 79.8842
L200.434 79.8842
L200.434 42
L96 42
L96 79.8842
z
" style="fill:#ffffff;stroke:#000000;"/>
    </g>
    <g id="line2d_141">
     <path d="
M104.4 51.4707
L121.2 51.4707" style="fill:none;stroke:#008000;stroke-linecap:square;"/>
    </g>
    <g id="line2d_142"/>
    <g id="text_21">
     <!-- p=12, q=20 -->
     <defs>
      <path d="
M5.09375 11
L55.5 11
L55.5 18.9844
L5.09375 18.9844
z

M5.09375 31.0156
L55.5 31.0156
L55.5 39
L5.09375 39
z
" id="Century_Schoolbook_L_Roman-61"/>
      <path d="
M8.70312 -18.1719
C17.5938 -12.0781 21.7969 -6 21.7969 0.984375
C21.7969 6.98438 18.5 10.875 13.5938 10.875
C9.90625 10.875 7.09375 8.28125 7.09375 4.89062
C7.09375 1.29688 9.79688 -1 13.9062 -1
C14.2969 -1 15.2969 -1 15.5 -1
L15.7969 -1
C16.2969 -1 16.5 -1.29688 16.5 -1.89062
C16.5 -6.0625 13.0938 -10.7188 6.40625 -15.375
z
" id="Century_Schoolbook_L_Roman-44"/>
      <path d="
M32.2031 70.5
C28.7969 66.2344 19.5938 63 10.4062 63
L10.4062 58.5938
L19.2031 58.5938
C25 58.5938 25.4062 58.2031 25.4062 52.3125
L25.4062 12.2812
L25.4062 9.375
C25.4062 5.1875 24.5 4.6875 16.5 4.6875
L10 4.6875
L10 0
L49.5938 0
L49.5938 4.6875
L44.0938 4.6875
C38.7969 4.6875 36.5938 5.09375 35.7969 6.09375
C35.0938 6.78125 35.0938 6.78125 35.0938 12.3125
L35.0938 53.6719
C35.0938 58.5781 35.2969 63.375 35.7969 70.5
z
" id="Century_Schoolbook_L_Roman-49"/>
      <path d="
M28.4062 71
C14.4062 71 4.20312 55.6875 4.20312 34.75
C4.20312 14.125 14.0938 -1 27.5938 -1
C41.5938 -1 51.4062 13.625 51.4062 34.4375
C51.4062 45.0625 49.2031 53.875 45 60.7812
C41.0938 67.0938 34.7031 71 28.4062 71
M27.7031 66.7031
C31 66.7031 34.2031 64.5 36.5938 60.5
C39.2969 55.875 40.2031 49.9688 40.2031 36.25
C40.2031 22.2188 39.5 15.625 37.5 11.2031
C35.2031 6.29688 31.5938 3.29688 27.7969 3.29688
C24.5 3.29688 21.2969 5.5 18.9062 9.5
C16.0938 14.2188 15.2969 20.5312 15.2969 36.8594
C15.2969 48.4844 16 54.375 18 58.6875
C20.2969 63.7969 23.9062 66.7031 27.7031 66.7031" id="Century_Schoolbook_L_Roman-48"/>
      <path d="
M44.9062 46.7969
L40.2031 39.9844
C36.2031 45.5938 31.2969 48.2812 25 48.2812
C12.7969 48.2812 3.59375 37.1719 3.59375 22.3438
C3.59375 8.625 12.2031 -1.39062 23.9062 -1.39062
C30.0938 -1.39062 33.5 0.40625 37.5 5.90625
L37.5 -7.75
L37.5 -11.7188
C37.5 -15.7188 36.4062 -16.4062 29.9062 -16.4062
L28.7969 -16.4062
L28.7969 -20
L54.7969 -20
L54.7969 -16.4062
L54.4062 -16.4062
C48 -16.4062 46.9062 -15.7188 46.9062 -11.7031
L46.9062 -7.71875
L46.9062 31.0781
C47 36.7812 47 37.1719 47 38.2812
C47.2031 40.1719 47.5 41.5781 48.5938 46.7969
z

M25.9062 44
C29.9062 44 33.5 41.3906 35.4062 37.1719
C36.9062 33.875 37.5 30.2656 37.5 24.5625
C37.5 10.8125 33.5938 4 25.7969 4
C18.4062 4 14.0938 10.9219 14.0938 22.9375
C14.0938 36.9844 18 44 25.9062 44" id="Century_Schoolbook_L_Roman-113"/>
     </defs>
     <g transform="translate(134.4 55.670650466)scale(0.12 -0.12)">
      <use transform="scale(0.9962640099626402)" xlink:href="#Century_Schoolbook_L_Roman-112"/>
      <use transform="translate(57.18548728401308 0.0)scale(0.9962640099626402)" xlink:href="#Century_Schoolbook_L_Roman-61"/>
      <use transform="translate(117.55849949894926 0.0)scale(0.9962640099626402)" xlink:href="#Century_Schoolbook_L_Roman-49"/>
      <use transform="translate(172.95017646228987 0.0)scale(0.9962640099626402)" xlink:href="#Century_Schoolbook_L_Roman-50"/>
      <use transform="translate(228.34185342563046 0.0)scale(0.9962640099626402)" xlink:href="#Century_Schoolbook_L_Roman-44"/>
      <use transform="translate(283.7321926321218 0.0)scale(0.9962640099626402)" xlink:href="#Century_Schoolbook_L_Roman-113"/>
      <use transform="translate(339.12386959546234 0.0)scale(0.9962640099626402)" xlink:href="#Century_Schoolbook_L_Roman-61"/>
      <use transform="translate(399.4968818103985 0.0)scale(0.9962640099626402)" xlink:href="#Century_Schoolbook_L_Roman-50"/>
      <use transform="translate(454.88855877373913 0.0)scale(0.9962640099626402)" xlink:href="#Century_Schoolbook_L_Roman-48"/>
     </g>
    </g>
    <g id="line2d_143">
     <path d="
M104.4 68.6127
L121.2 68.6127" style="fill:none;stroke:#0000ff;stroke-linecap:square;"/>
    </g>
    <g id="line2d_144"/>
    <g id="text_22">
     <!-- p=12, q=52 -->
     <defs>
      <path d="
M16.4062 59.7031
C21.7969 58.4062 24.5938 58 28.5 58
C37 58 43.2031 61 46.5 66.5
C47.5938 68.4062 48 69.2969 48 70.0938
C48 70.7031 47.7031 71 47.2031 71
C46.9062 71 46.4062 70.8906 45.9062 70.5938
C41 68.4844 38.2969 67.9844 32.5938 67.9844
C26.2031 67.9844 22.5 68.4844 12 71
C11.5938 62.6406 10.7031 52 9.29688 39.6562
C7.20312 37.4688 6.5 36.1719 6.5 34.5781
C6.5 32.5938 7.79688 31.2031 9.70312 31.2031
C12.2031 31.2031 13.7969 33.3281 14.2031 37.3594
C17.7031 39.8906 21 41 25 41
C33.9062 41 39.2969 34.0312 39.2969 22.5
C39.2969 15.7344 37.5938 9.95312 34.5938 6.82812
C32.5938 4.70312 28.5 3.29688 24.4062 3.29688
C18.4062 3.29688 12.2031 6.4375 12.2031 9.5625
C12.2031 10.2812 12.7969 11.0781 14 11.7812
C17.0938 13.7188 18 15.0312 18 17.75
C18 21.2969 15.2969 24.0156 11.7031 24.0156
C7.70312 24.0156 4.5 20.2812 4.5 15.5469
C4.5 10.5 7.40625 5.45312 11.9062 2.32812
C15.2969 0.109375 19.4062 -1 24.5938 -1
C40.2969 -1 50.2031 8.28125 50.2031 23.1094
C50.2031 36.8281 41.0938 46 27.5938 46
C23.4062 46 20.2031 45.2969 14.7031 43
z
" id="Century_Schoolbook_L_Roman-53"/>
     </defs>
     <g transform="translate(134.4 72.8127360533)scale(0.12 -0.12)">
      <use transform="scale(0.9962640099626402)" xlink:href="#Century_Schoolbook_L_Roman-112"/>
      <use transform="translate(57.18548728401308 0.0)scale(0.9962640099626402)" xlink:href="#Century_Schoolbook_L_Roman-61"/>
      <use transform="translate(117.55849949894926 0.0)scale(0.9962640099626402)" xlink:href="#Century_Schoolbook_L_Roman-49"/>
      <use transform="translate(172.95017646228987 0.0)scale(0.9962640099626402)" xlink:href="#Century_Schoolbook_L_Roman-50"/>
      <use transform="translate(228.34185342563046 0.0)scale(0.9962640099626402)" xlink:href="#Century_Schoolbook_L_Roman-44"/>
      <use transform="translate(283.7321926321218 0.0)scale(0.9962640099626402)" xlink:href="#Century_Schoolbook_L_Roman-113"/>
      <use transform="translate(339.12386959546234 0.0)scale(0.9962640099626402)" xlink:href="#Century_Schoolbook_L_Roman-61"/>
      <use transform="translate(399.4968818103985 0.0)scale(0.9962640099626402)" xlink:href="#Century_Schoolbook_L_Roman-53"/>
      <use transform="translate(454.88855877373913 0.0)scale(0.9962640099626402)" xlink:href="#Century_Schoolbook_L_Roman-50"/>
     </g>
    </g>
   </g>
  </g>
 </g>
 <defs>
  <clipPath id="pc897140274">
   <rect height="288.0" width="558.0" x="90.0" y="36.0"/>
  </clipPath>
 </defs>
</svg>
