<?xml version="1.0" encoding="utf-8" standalone="no"?>
<!DOCTYPE svg PUBLIC "-//W3C//DTD SVG 1.1//EN"
  "http://www.w3.org/Graphics/SVG/1.1/DTD/svg11.dtd">
<!-- Created with matplotlib (http://matplotlib.org/) -->
<svg height="288pt" version="1.1" viewBox="0 0 432 288" width="432pt" xmlns="http://www.w3.org/2000/svg" xmlns:xlink="http://www.w3.org/1999/xlink">
 <defs>
  <style type="text/css">
*{stroke-linecap:butt;stroke-linejoin:round;}
  </style>
 </defs>
 <g id="figure_1">
  <g id="patch_1">
   <path d="
M0 288
L432 288
L432 0
L0 0
z
" style="fill:#ffffff;"/>
  </g>
  <g id="axes_1">
   <g id="patch_2">
    <path d="
M54 259.2
L388.8 259.2
L388.8 28.8
L54 28.8
z
" style="fill:#ffffff;"/>
   </g>
   <g id="line2d_1">
    <path clip-path="url(#pb621c9fff4)" d="
M54 77.4643
L55.9519 89.7554
L58.2721 105.855
L61.3389 128.82
L69.1699 188.157
L71.547 204.074
L73.5324 215.926
L75.26 224.95
L76.7901 231.811
L78.1561 236.961
L79.3781 240.742
L80.4662 243.425
L81.4338 245.254
L82.2909 246.429
L83.0509 247.116
L83.7305 247.446
L84.36 247.512
L84.9794 247.351
L85.6255 246.945
L86.3286 246.228
L87.1121 245.094
L87.9859 243.418
L88.9635 241.035
L90.0516 237.77
L91.2636 233.398
L92.6129 227.663
L94.1195 220.248
L95.8169 210.732
L97.7621 198.508
L100.076 182.481
L103.119 159.717
L111.091 99.3469
L113.451 83.5847
L115.426 71.8287
L117.147 62.87
L118.674 56.0499
L120.037 50.9348
L121.255 47.1829
L122.34 44.5237
L123.308 42.7075
L124.165 41.5447
L124.921 40.8704
L125.601 40.5482
L126.23 40.49
L126.85 40.6582
L127.496 41.0718
L128.202 41.801
L128.986 42.9456
L129.863 44.6415
L130.844 47.0478
L131.936 50.3421
L133.151 54.7485
L134.503 60.5237
L136.017 68.0011
L137.721 77.5889
L139.676 89.9162
L142.003 106.079
L145.083 129.161
L152.824 187.833
L155.208 203.825
L157.196 215.725
L158.927 224.791
L160.461 231.69
L161.83 236.872
L163.052 240.67
L164.144 243.376
L165.115 245.223
L165.975 246.411
L166.738 247.107
L167.418 247.442
L168.047 247.513
L168.667 247.356
L169.313 246.955
L170.016 246.244
L170.796 245.121
L171.67 243.452
L172.644 241.087
L173.732 237.833
L174.941 233.486
L176.287 227.781
L177.79 220.402
L179.484 210.926
L181.426 198.745
L183.73 182.813
L186.753 160.224
L194.862 98.8487
L197.209 83.2208
L199.177 71.5448
L200.892 62.6564
L202.412 55.8959
L203.768 50.8296
L204.983 47.1071
L206.068 44.4645
L207.032 42.6688
L207.886 41.5216
L208.639 40.8586
L209.315 40.5443
L209.945 40.4913
L210.564 40.6647
L211.214 41.0865
L211.92 41.8228
L212.707 42.9809
L213.587 44.6946
L214.568 47.114
L215.663 50.4337
L216.882 54.8707
L218.238 60.6817
L219.754 68.2001
L221.465 77.8537
L223.427 90.2549
L225.768 106.545
L228.881 129.915
L236.431 187.178
L238.835 203.362
L240.834 215.372
L242.571 224.518
L244.111 231.485
L245.484 236.713
L246.713 240.56
L247.808 243.297
L248.782 245.169
L249.646 246.377
L250.409 247.086
L251.092 247.434
L251.725 247.514
L252.344 247.366
L252.987 246.976
L253.687 246.279
L254.464 245.175
L255.331 243.536
L256.302 241.202
L257.383 237.995
L258.588 233.692
L259.931 228.036
L261.427 220.73
L263.115 211.337
L265.043 199.291
L267.33 183.529
L270.31 161.322
L278.72 97.7457
L281.04 82.3972
L282.992 70.9111
L284.693 62.172
L286.203 55.5257
L287.552 50.5452
L288.757 46.9049
L289.832 44.3281
L290.786 42.5832
L291.633 41.4698
L292.383 40.8299
L293.056 40.5338
L293.682 40.4955
L294.302 40.6825
L294.955 41.1213
L295.668 41.8829
L296.461 43.0741
L297.348 44.8297
L298.339 47.3101
L299.444 50.7053
L300.673 55.2333
L302.042 61.1667
L303.572 68.8277
L305.297 78.6424
L307.279 91.2645
L309.652 107.889
L312.86 132.064
L319.894 185.498
L322.345 202.147
L324.374 214.467
L326.132 223.831
L327.685 230.957
L329.071 236.32
L330.31 240.269
L331.418 243.098
L332.402 245.037
L333.276 246.296
L334.05 247.043
L334.739 247.417
L335.375 247.516
L335.991 247.387
L336.631 247.019
L337.324 246.353
L338.094 245.288
L338.954 243.697
L339.915 241.43
L340.987 238.305
L342.179 234.114
L343.508 228.591
L344.991 221.438
L346.658 212.256
L348.563 200.468
L350.81 185.105
L353.696 163.722
L362.799 95.1289
L365.049 80.4851
L366.957 69.4656
L368.628 61.0654
L370.111 54.6958
L371.437 49.9361
L372.622 46.4681
L373.68 44.0234
L374.618 42.3835
L375.448 41.3509
L376.185 40.7685
L376.848 40.514
L377.47 40.5084
L378.093 40.7289
L378.753 41.2085
L379.476 42.0238
L380.279 43.282
L381.18 45.1273
L382.184 47.7177
L383.303 51.2445
L384.548 55.9403
L385.937 62.0845
L387.491 70.0048
L388.8 77.4643
L388.8 77.4643" style="fill:none;stroke:#000000;stroke-linecap:square;"/>
   </g>
   <g id="matplotlib.axis_1">
    <g id="xtick_1">
     <g id="line2d_2">
      <path clip-path="url(#pb621c9fff4)" d="
M54 259.2
L54 28.8" style="fill:none;stroke:#000000;stroke-dasharray:6.000000,6.000000;stroke-dashoffset:0.0;stroke-width:0.5;"/>
     </g>
     <g id="line2d_3">
      <defs>
       <path d="
M0 0
L0 -4" id="mc7db9fdffb" style="stroke:#000000;stroke-width:0.5;"/>
      </defs>
      <g>
       <use style="stroke:#000000;stroke-width:0.5;" x="54.0" xlink:href="#mc7db9fdffb" y="259.2"/>
      </g>
     </g>
     <g id="line2d_4">
      <defs>
       <path d="
M0 0
L0 4" id="m5a7d422ac3" style="stroke:#000000;stroke-width:0.5;"/>
      </defs>
      <g>
       <use style="stroke:#000000;stroke-width:0.5;" x="54.0" xlink:href="#m5a7d422ac3" y="28.8"/>
      </g>
     </g>
     <g id="text_1">
      <!-- $-2.0$ -->
      <defs>
       <path d="
M65.9062 23
C67.5938 23 69.4062 23 69.4062 25
C69.4062 27 67.5938 27 65.9062 27
L11.7969 27
C10.0938 27 8.29688 27 8.29688 25
C8.29688 23 10.0938 23 11.7969 23
z
" id="CMSY10-0"/>
       <path d="
M41.7031 15.4531
L39.9062 15.4531
C38.9062 8.375 38.0938 7.17188 37.7031 6.5625
C37.2031 5.76562 30 5.76562 28.5938 5.76562
L9.40625 5.76562
C13 9.67188 20 16.75 28.5 24.9531
C34.5938 30.7344 41.7031 37.5312 41.7031 47.4219
C41.7031 59.2188 32.2969 66 21.7969 66
C10.7969 66 4.09375 56.3125 4.09375 47.3438
C4.09375 43.4375 7 42.9375 8.20312 42.9375
C9.20312 42.9375 12.2031 43.5469 12.2031 47.0312
C12.2031 50.1094 9.59375 51 8.20312 51
C7.59375 51 7 50.9062 6.59375 50.7031
C8.5 59.2188 14.2969 63.4062 20.4062 63.4062
C29.0938 63.4062 34.7969 56.5156 34.7969 47.4219
C34.7969 38.7344 29.7031 31.25 24 24.75
L4.09375 2.28125
L4.09375 0
L39.2969 0
z
" id="CMR17-50"/>
       <path d="
M18.4062 4.79688
C18.4062 7.6875 16 9.67188 13.5938 9.67188
C10.7031 9.67188 8.70312 7.28125 8.70312 4.89062
C8.70312 2 11.0938 0 13.5 0
C16.4062 0 18.4062 2.39062 18.4062 4.79688" id="CMMI12-58"/>
       <path d="
M42 31.6406
C42 37.75 41.9062 48.125 37.7031 56.1094
C34 63.1094 28.0938 65.5938 22.9062 65.5938
C18.0938 65.5938 12 63.4062 8.20312 56.2031
C4.20312 48.7188 3.79688 39.4375 3.79688 31.6406
C3.79688 25.9531 3.90625 17.2812 7 9.67188
C11.2969 -0.609375 19 -2 22.9062 -2
C27.5 -2 34.5 -0.109375 38.5938 9.375
C41.5938 16.2812 42 24.3594 42 31.6406
M22.9062 -0.40625
C16.5 -0.40625 12.7031 5.07812 11.2969 12.6875
C10.2031 18.5625 10.2031 27.1562 10.2031 32.75
C10.2031 40.4375 10.2031 46.8281 11.5 52.9219
C13.4062 61.3906 19 64 22.9062 64
C27 64 32.2969 61.2969 34.2031 53.125
C35.5 47.4375 35.5938 40.7344 35.5938 32.75
C35.5938 26.25 35.5938 18.2656 34.4062 12.375
C32.2969 1.48438 26.4062 -0.40625 22.9062 -0.40625" id="CMR17-48"/>
      </defs>
      <g transform="translate(41.8719344086 272.070650466)scale(0.12 -0.12)">
       <use transform="scale(0.9962640099626402)" xlink:href="#CMSY10-0"/>
       <use transform="translate(77.4874676506071 0.0)scale(0.9962640099626402)" xlink:href="#CMR17-50"/>
       <use transform="translate(123.17794476766814 0.0)scale(0.9962640099626402)" xlink:href="#CMMI12-58"/>
       <use transform="translate(150.27512185748756 0.0)scale(0.9962640099626402)" xlink:href="#CMR17-48"/>
      </g>
     </g>
    </g>
    <g id="xtick_2">
     <g id="line2d_5">
      <path clip-path="url(#pb621c9fff4)" d="
M95.85 259.2
L95.85 28.8" style="fill:none;stroke:#000000;stroke-dasharray:6.000000,6.000000;stroke-dashoffset:0.0;stroke-width:0.5;"/>
     </g>
     <g id="line2d_6">
      <g>
       <use style="stroke:#000000;stroke-width:0.5;" x="95.85" xlink:href="#mc7db9fdffb" y="259.2"/>
      </g>
     </g>
     <g id="line2d_7">
      <g>
       <use style="stroke:#000000;stroke-width:0.5;" x="95.85" xlink:href="#m5a7d422ac3" y="28.8"/>
      </g>
     </g>
     <g id="text_2">
      <!-- $-1.5$ -->
      <defs>
       <path d="
M11.4062 57.6875
C12.4062 57.2812 16.5 56 20.7031 56
C30 56 35.0938 61.0156 38 63.9219
C38 64.7344 38 65.25 37.4062 65.25
C37.2969 65.25 37.0938 65.25 36.2969 64.8281
C32.7969 63.3125 28.7031 62.0781 23.7031 62.0781
C20.7031 62.0781 16.2031 62.5 11.2969 64.7344
C10.2031 65.25 10 65.25 9.90625 65.25
C9.40625 65.25 9.29688 65.1406 9.29688 63.1562
L9.29688 34.2812
C9.29688 32.5 9.29688 32 10.2969 32
C10.7969 32 11 32.2031 11.5 32.9062
C14.7031 37.4844 19.0938 39.4062 24.0938 39.4062
C27.5938 39.4062 35.0938 37.2188 35.0938 20.1406
C35.0938 16.9531 35.0938 11.1719 32.0938 6.57812
C29.5938 2.48438 25.7031 0.390625 21.4062 0.390625
C14.7969 0.390625 8.09375 5 6.29688 12.7188
C6.70312 12.6094 7.5 12.4219 7.90625 12.4219
C9.20312 12.4219 11.7031 13.125 11.7031 16.2188
C11.7031 18.9062 9.79688 20 7.90625 20
C5.59375 20 4.09375 18.5938 4.09375 15.7969
C4.09375 7.09375 11 -2 21.5938 -2
C31.9062 -2 41.7031 6.875 41.7031 19.75
C41.7031 31.7188 33.9062 41 24.2031 41
C19.0938 41 14.7969 39.0938 11.4062 35.4531
z
" id="CMR17-53"/>
       <path d="
M26.5938 63.3125
C26.5938 65.4062 26.5 65.5 25.0938 65.5
C21.2031 61.1875 15.2969 59.7969 9.70312 59.7969
C9.40625 59.7969 8.90625 59.7969 8.79688 59.6094
C8.70312 59.3906 8.70312 59.1719 8.70312 57
C11.7969 57 17 57.5938 21 59.9844
L21 7.20312
C21 3.6875 20.7969 2.5 12.2031 2.5
L9.20312 2.5
L9.20312 0
C14 0 19 0 23.7969 0
C28.5938 0 33.5938 0 38.4062 0
L38.4062 2.5
L35.4062 2.5
C26.7969 2.5 26.5938 3.59375 26.5938 7.15625
z
" id="CMR17-49"/>
      </defs>
      <g transform="translate(83.7219344086 272.070650466)scale(0.12 -0.12)">
       <use transform="scale(0.9962640099626402)" xlink:href="#CMSY10-0"/>
       <use transform="translate(77.4874676506071 0.0)scale(0.9962640099626402)" xlink:href="#CMR17-49"/>
       <use transform="translate(123.17794476766814 0.0)scale(0.9962640099626402)" xlink:href="#CMMI12-58"/>
       <use transform="translate(150.27512185748756 0.0)scale(0.9962640099626402)" xlink:href="#CMR17-53"/>
      </g>
     </g>
    </g>
    <g id="xtick_3">
     <g id="line2d_8">
      <path clip-path="url(#pb621c9fff4)" d="
M137.7 259.2
L137.7 28.8" style="fill:none;stroke:#000000;stroke-dasharray:6.000000,6.000000;stroke-dashoffset:0.0;stroke-width:0.5;"/>
     </g>
     <g id="line2d_9">
      <g>
       <use style="stroke:#000000;stroke-width:0.5;" x="137.7" xlink:href="#mc7db9fdffb" y="259.2"/>
      </g>
     </g>
     <g id="line2d_10">
      <g>
       <use style="stroke:#000000;stroke-width:0.5;" x="137.7" xlink:href="#m5a7d422ac3" y="28.8"/>
      </g>
     </g>
     <g id="text_3">
      <!-- $-1.0$ -->
      <g transform="translate(125.571934409 272.070650466)scale(0.12 -0.12)">
       <use transform="scale(0.9962640099626402)" xlink:href="#CMSY10-0"/>
       <use transform="translate(77.4874676506071 0.0)scale(0.9962640099626402)" xlink:href="#CMR17-49"/>
       <use transform="translate(123.17794476766814 0.0)scale(0.9962640099626402)" xlink:href="#CMMI12-58"/>
       <use transform="translate(150.27512185748756 0.0)scale(0.9962640099626402)" xlink:href="#CMR17-48"/>
      </g>
     </g>
    </g>
    <g id="xtick_4">
     <g id="line2d_11">
      <path clip-path="url(#pb621c9fff4)" d="
M179.55 259.2
L179.55 28.8" style="fill:none;stroke:#000000;stroke-dasharray:6.000000,6.000000;stroke-dashoffset:0.0;stroke-width:0.5;"/>
     </g>
     <g id="line2d_12">
      <g>
       <use style="stroke:#000000;stroke-width:0.5;" x="179.55" xlink:href="#mc7db9fdffb" y="259.2"/>
      </g>
     </g>
     <g id="line2d_13">
      <g>
       <use style="stroke:#000000;stroke-width:0.5;" x="179.55" xlink:href="#m5a7d422ac3" y="28.8"/>
      </g>
     </g>
     <g id="text_4">
      <!-- $-0.5$ -->
      <g transform="translate(167.421934409 272.070650466)scale(0.12 -0.12)">
       <use transform="scale(0.9962640099626402)" xlink:href="#CMSY10-0"/>
       <use transform="translate(77.4874676506071 0.0)scale(0.9962640099626402)" xlink:href="#CMR17-48"/>
       <use transform="translate(123.17794476766814 0.0)scale(0.9962640099626402)" xlink:href="#CMMI12-58"/>
       <use transform="translate(150.27512185748756 0.0)scale(0.9962640099626402)" xlink:href="#CMR17-53"/>
      </g>
     </g>
    </g>
    <g id="xtick_5">
     <g id="line2d_14">
      <path clip-path="url(#pb621c9fff4)" d="
M221.4 259.2
L221.4 28.8" style="fill:none;stroke:#000000;stroke-dasharray:6.000000,6.000000;stroke-dashoffset:0.0;stroke-width:0.5;"/>
     </g>
     <g id="line2d_15">
      <g>
       <use style="stroke:#000000;stroke-width:0.5;" x="221.4" xlink:href="#mc7db9fdffb" y="259.2"/>
      </g>
     </g>
     <g id="line2d_16">
      <g>
       <use style="stroke:#000000;stroke-width:0.5;" x="221.4" xlink:href="#m5a7d422ac3" y="28.8"/>
      </g>
     </g>
     <g id="text_5">
      <!-- $0.0$ -->
      <g transform="translate(213.921179123 272.070650466)scale(0.12 -0.12)">
       <use transform="scale(0.9962640099626402)" xlink:href="#CMR17-48"/>
       <use transform="translate(45.69047711706103 0.0)scale(0.9962640099626402)" xlink:href="#CMMI12-58"/>
       <use transform="translate(72.78765420688046 0.0)scale(0.9962640099626402)" xlink:href="#CMR17-48"/>
      </g>
     </g>
    </g>
    <g id="xtick_6">
     <g id="line2d_17">
      <path clip-path="url(#pb621c9fff4)" d="
M263.25 259.2
L263.25 28.8" style="fill:none;stroke:#000000;stroke-dasharray:6.000000,6.000000;stroke-dashoffset:0.0;stroke-width:0.5;"/>
     </g>
     <g id="line2d_18">
      <g>
       <use style="stroke:#000000;stroke-width:0.5;" x="263.25" xlink:href="#mc7db9fdffb" y="259.2"/>
      </g>
     </g>
     <g id="line2d_19">
      <g>
       <use style="stroke:#000000;stroke-width:0.5;" x="263.25" xlink:href="#m5a7d422ac3" y="28.8"/>
      </g>
     </g>
     <g id="text_6">
      <!-- $0.5$ -->
      <g transform="translate(255.771179123 272.070650466)scale(0.12 -0.12)">
       <use transform="scale(0.9962640099626402)" xlink:href="#CMR17-48"/>
       <use transform="translate(45.69047711706103 0.0)scale(0.9962640099626402)" xlink:href="#CMMI12-58"/>
       <use transform="translate(72.78765420688046 0.0)scale(0.9962640099626402)" xlink:href="#CMR17-53"/>
      </g>
     </g>
    </g>
    <g id="xtick_7">
     <g id="line2d_20">
      <path clip-path="url(#pb621c9fff4)" d="
M305.1 259.2
L305.1 28.8" style="fill:none;stroke:#000000;stroke-dasharray:6.000000,6.000000;stroke-dashoffset:0.0;stroke-width:0.5;"/>
     </g>
     <g id="line2d_21">
      <g>
       <use style="stroke:#000000;stroke-width:0.5;" x="305.1" xlink:href="#mc7db9fdffb" y="259.2"/>
      </g>
     </g>
     <g id="line2d_22">
      <g>
       <use style="stroke:#000000;stroke-width:0.5;" x="305.1" xlink:href="#m5a7d422ac3" y="28.8"/>
      </g>
     </g>
     <g id="text_7">
      <!-- $1.0$ -->
      <g transform="translate(297.621179123 272.070650466)scale(0.12 -0.12)">
       <use transform="scale(0.9962640099626402)" xlink:href="#CMR17-49"/>
       <use transform="translate(45.69047711706103 0.0)scale(0.9962640099626402)" xlink:href="#CMMI12-58"/>
       <use transform="translate(72.78765420688046 0.0)scale(0.9962640099626402)" xlink:href="#CMR17-48"/>
      </g>
     </g>
    </g>
    <g id="xtick_8">
     <g id="line2d_23">
      <path clip-path="url(#pb621c9fff4)" d="
M346.95 259.2
L346.95 28.8" style="fill:none;stroke:#000000;stroke-dasharray:6.000000,6.000000;stroke-dashoffset:0.0;stroke-width:0.5;"/>
     </g>
     <g id="line2d_24">
      <g>
       <use style="stroke:#000000;stroke-width:0.5;" x="346.95" xlink:href="#mc7db9fdffb" y="259.2"/>
      </g>
     </g>
     <g id="line2d_25">
      <g>
       <use style="stroke:#000000;stroke-width:0.5;" x="346.95" xlink:href="#m5a7d422ac3" y="28.8"/>
      </g>
     </g>
     <g id="text_8">
      <!-- $1.5$ -->
      <g transform="translate(339.471179123 272.070650466)scale(0.12 -0.12)">
       <use transform="scale(0.9962640099626402)" xlink:href="#CMR17-49"/>
       <use transform="translate(45.69047711706103 0.0)scale(0.9962640099626402)" xlink:href="#CMMI12-58"/>
       <use transform="translate(72.78765420688046 0.0)scale(0.9962640099626402)" xlink:href="#CMR17-53"/>
      </g>
     </g>
    </g>
    <g id="xtick_9">
     <g id="line2d_26">
      <path clip-path="url(#pb621c9fff4)" d="
M388.8 259.2
L388.8 28.8" style="fill:none;stroke:#000000;stroke-dasharray:6.000000,6.000000;stroke-dashoffset:0.0;stroke-width:0.5;"/>
     </g>
     <g id="line2d_27">
      <g>
       <use style="stroke:#000000;stroke-width:0.5;" x="388.8" xlink:href="#mc7db9fdffb" y="259.2"/>
      </g>
     </g>
     <g id="line2d_28">
      <g>
       <use style="stroke:#000000;stroke-width:0.5;" x="388.8" xlink:href="#m5a7d422ac3" y="28.8"/>
      </g>
     </g>
     <g id="text_9">
      <!-- $2.0$ -->
      <g transform="translate(381.321179123 272.070650466)scale(0.12 -0.12)">
       <use transform="scale(0.9962640099626402)" xlink:href="#CMR17-50"/>
       <use transform="translate(45.69047711706103 0.0)scale(0.9962640099626402)" xlink:href="#CMMI12-58"/>
       <use transform="translate(72.78765420688046 0.0)scale(0.9962640099626402)" xlink:href="#CMR17-48"/>
      </g>
     </g>
    </g>
    <g id="text_10">
     <!-- $x$ -->
     <defs>
      <path d="
M47.4062 40.7188
C44.2031 40.1094 43 37.7188 43 35.8281
C43 33.4219 44.9062 32.625 46.2969 32.625
C49.2969 32.625 51.4062 35.2188 51.4062 37.9219
C51.4062 42.1094 46.5938 44 42.4062 44
C36.2969 44 32.9062 38.0156 32 36.125
C29.7031 44 23.5 44 21.7031 44
C11.5 44 6.09375 30.9375 6.09375 28.7344
C6.09375 28.3438 6.5 27.8438 7.20312 27.8438
C8 27.8438 8.20312 28.4375 8.40625 28.8438
C11.7969 39.9219 18.5 42.0156 21.4062 42.0156
C25.9062 42.0156 26.7969 37.8125 26.7969 35.4219
C26.7969 33.2344 26.2031 30.9375 25 26.1406
L21.5938 12.4688
C20.0938 6.48438 17.2031 1 11.9062 1
C11.4062 1 8.90625 1 6.79688 2.29688
C10.4062 3 11.2031 5.98438 11.2031 7.1875
C11.2031 9.1875 9.70312 10.375 7.79688 10.375
C5.40625 10.375 2.79688 8.28125 2.79688 5.09375
C2.79688 0.890625 7.5 -1 11.7969 -1
C16.5938 -1 20 2.79688 22.0938 6.89062
C23.7031 1 28.7031 -1 32.4062 -1
C42.5938 -1 48 12.0781 48 14.2656
C48 14.7656 47.5938 15.1719 47 15.1719
C46.0938 15.1719 46 14.6719 45.7031 13.875
C43 5.09375 37.2031 1 32.7031 1
C29.2031 1 27.2969 3.59375 27.2969 7.6875
C27.2969 9.875 27.7031 11.4688 29.2969 18.0625
L32.7969 31.625
C34.2969 37.625 37.7031 42.0156 42.2969 42.0156
C42.5 42.0156 45.2969 42.0156 47.4062 40.7188" id="CMMI12-120"/>
     </defs>
     <g transform="translate(218.073956428 288.212736053)scale(0.12 -0.12)">
      <use transform="scale(0.9962640099626402)" xlink:href="#CMMI12-120"/>
     </g>
    </g>
   </g>
   <g id="matplotlib.axis_2">
    <g id="ytick_1">
     <g id="line2d_29">
      <path clip-path="url(#pb621c9fff4)" d="
M54 248.727
L388.8 248.727" style="fill:none;stroke:#000000;stroke-dasharray:6.000000,6.000000;stroke-dashoffset:0.0;stroke-width:0.5;"/>
     </g>
     <g id="line2d_30">
      <defs>
       <path d="
M0 0
L4 0" id="md7965d1ba0" style="stroke:#000000;stroke-width:0.5;"/>
      </defs>
      <g>
       <use style="stroke:#000000;stroke-width:0.5;" x="54.0" xlink:href="#md7965d1ba0" y="248.727272727"/>
      </g>
     </g>
     <g id="line2d_31">
      <defs>
       <path d="
M0 0
L-4 0" id="md9a1c1a7cd" style="stroke:#000000;stroke-width:0.5;"/>
      </defs>
      <g>
       <use style="stroke:#000000;stroke-width:0.5;" x="388.8" xlink:href="#md9a1c1a7cd" y="248.727272727"/>
      </g>
     </g>
     <g id="text_11">
      <!-- $-1.0$ -->
      <g transform="translate(25.7438688171 252.0268804)scale(0.12 -0.12)">
       <use transform="scale(0.9962640099626402)" xlink:href="#CMSY10-0"/>
       <use transform="translate(77.4874676506071 0.0)scale(0.9962640099626402)" xlink:href="#CMR17-49"/>
       <use transform="translate(123.17794476766814 0.0)scale(0.9962640099626402)" xlink:href="#CMMI12-58"/>
       <use transform="translate(150.27512185748756 0.0)scale(0.9962640099626402)" xlink:href="#CMR17-48"/>
      </g>
     </g>
    </g>
    <g id="ytick_2">
     <g id="line2d_32">
      <path clip-path="url(#pb621c9fff4)" d="
M54 196.364
L388.8 196.364" style="fill:none;stroke:#000000;stroke-dasharray:6.000000,6.000000;stroke-dashoffset:0.0;stroke-width:0.5;"/>
     </g>
     <g id="line2d_33">
      <g>
       <use style="stroke:#000000;stroke-width:0.5;" x="54.0" xlink:href="#md7965d1ba0" y="196.363636364"/>
      </g>
     </g>
     <g id="line2d_34">
      <g>
       <use style="stroke:#000000;stroke-width:0.5;" x="388.8" xlink:href="#md9a1c1a7cd" y="196.363636364"/>
      </g>
     </g>
     <g id="text_12">
      <!-- $-0.5$ -->
      <g transform="translate(25.7438688171 199.663244036)scale(0.12 -0.12)">
       <use transform="scale(0.9962640099626402)" xlink:href="#CMSY10-0"/>
       <use transform="translate(77.4874676506071 0.0)scale(0.9962640099626402)" xlink:href="#CMR17-48"/>
       <use transform="translate(123.17794476766814 0.0)scale(0.9962640099626402)" xlink:href="#CMMI12-58"/>
       <use transform="translate(150.27512185748756 0.0)scale(0.9962640099626402)" xlink:href="#CMR17-53"/>
      </g>
     </g>
    </g>
    <g id="ytick_3">
     <g id="line2d_35">
      <path clip-path="url(#pb621c9fff4)" d="
M54 144
L388.8 144" style="fill:none;stroke:#000000;stroke-dasharray:6.000000,6.000000;stroke-dashoffset:0.0;stroke-width:0.5;"/>
     </g>
     <g id="line2d_36">
      <g>
       <use style="stroke:#000000;stroke-width:0.5;" x="54.0" xlink:href="#md7965d1ba0" y="144.0"/>
      </g>
     </g>
     <g id="line2d_37">
      <g>
       <use style="stroke:#000000;stroke-width:0.5;" x="388.8" xlink:href="#md9a1c1a7cd" y="144.0"/>
      </g>
     </g>
     <g id="text_13">
      <!-- $0.0$ -->
      <g transform="translate(35.0423582464 147.299607672)scale(0.12 -0.12)">
       <use transform="scale(0.9962640099626402)" xlink:href="#CMR17-48"/>
       <use transform="translate(45.69047711706103 0.0)scale(0.9962640099626402)" xlink:href="#CMMI12-58"/>
       <use transform="translate(72.78765420688046 0.0)scale(0.9962640099626402)" xlink:href="#CMR17-48"/>
      </g>
     </g>
    </g>
    <g id="ytick_4">
     <g id="line2d_38">
      <path clip-path="url(#pb621c9fff4)" d="
M54 91.6364
L388.8 91.6364" style="fill:none;stroke:#000000;stroke-dasharray:6.000000,6.000000;stroke-dashoffset:0.0;stroke-width:0.5;"/>
     </g>
     <g id="line2d_39">
      <g>
       <use style="stroke:#000000;stroke-width:0.5;" x="54.0" xlink:href="#md7965d1ba0" y="91.6363636364"/>
      </g>
     </g>
     <g id="line2d_40">
      <g>
       <use style="stroke:#000000;stroke-width:0.5;" x="388.8" xlink:href="#md9a1c1a7cd" y="91.6363636364"/>
      </g>
     </g>
     <g id="text_14">
      <!-- $0.5$ -->
      <g transform="translate(35.0423582464 94.9359713088)scale(0.12 -0.12)">
       <use transform="scale(0.9962640099626402)" xlink:href="#CMR17-48"/>
       <use transform="translate(45.69047711706103 0.0)scale(0.9962640099626402)" xlink:href="#CMMI12-58"/>
       <use transform="translate(72.78765420688046 0.0)scale(0.9962640099626402)" xlink:href="#CMR17-53"/>
      </g>
     </g>
    </g>
    <g id="ytick_5">
     <g id="line2d_41">
      <path clip-path="url(#pb621c9fff4)" d="
M54 39.2727
L388.8 39.2727" style="fill:none;stroke:#000000;stroke-dasharray:6.000000,6.000000;stroke-dashoffset:0.0;stroke-width:0.5;"/>
     </g>
     <g id="line2d_42">
      <g>
       <use style="stroke:#000000;stroke-width:0.5;" x="54.0" xlink:href="#md7965d1ba0" y="39.2727272727"/>
      </g>
     </g>
     <g id="line2d_43">
      <g>
       <use style="stroke:#000000;stroke-width:0.5;" x="388.8" xlink:href="#md9a1c1a7cd" y="39.2727272727"/>
      </g>
     </g>
     <g id="text_15">
      <!-- $1.0$ -->
      <g transform="translate(35.0423582464 42.5723349451)scale(0.12 -0.12)">
       <use transform="scale(0.9962640099626402)" xlink:href="#CMR17-49"/>
       <use transform="translate(45.69047711706103 0.0)scale(0.9962640099626402)" xlink:href="#CMMI12-58"/>
       <use transform="translate(72.78765420688046 0.0)scale(0.9962640099626402)" xlink:href="#CMR17-48"/>
      </g>
     </g>
    </g>
    <g id="text_16">
     <!-- $\xi(x)-1$ -->
     <defs>
      <path d="
M26.0938 -0.375
L15.5938 3.78125
C13 4.75 7 7.125 7 13.0469
C7 21.5156 17.5 30.1094 19.5938 30.1094
C19.7969 30.1094 20.7031 29.9062 21 29.8125
C23.7031 29.0156 26.2969 29.0156 28.0938 29.0156
C31.2031 29.0156 37.0938 29.0156 37.0938 32.2188
C37.0938 34.6562 33.5 35 29.2031 35
C27.2031 35 24.5 35 20.9062 33.7969
C18.5 35.8125 17.5 39 17.5 42.0312
C17.5 47.5312 21.0938 55.3438 29 59.0625
C30.7969 57 33.2031 57 35.2969 57
C37.7969 57 43.9062 57 43.9062 59.6875
C43.9062 62 39.0938 62 35.9062 62
C33.9062 62 32.4062 62 29.5938 61.5
C29.0938 62.6719 29 62.875 29 65.0469
C29 66.8281 29.4062 68.2188 29.4062 68.5
C29.4062 69.0938 28.9062 69.5 28.4062 69.5
C26.7969 69.5 26.7969 65.8438 26.7969 65.0469
C26.7969 63.6719 26.9062 62.2812 27.5 61
C15.5 57.4844 10.2031 48.9531 10.2031 42.4375
C10.2031 36.4062 14.2031 33.0938 16.9062 31.5781
C6.59375 26.0469 2.20312 15.9531 2.20312 10.6094
C2.20312 2 10.0938 -1.07812 13.7031 -2.5625
L22.7031 -6.125
C25.2031 -7.01562 29.2969 -8.6875 30 -9.09375
C31 -9.78125 31.7969 -10.9844 31.7969 -12.5625
C31.7969 -14.6406 30.2031 -18 26.7031 -18
C25.2031 -18 21.9062 -17.6094 18.2969 -14.9531
C17.5938 -14.3438 17.5 -14.25 17.0938 -14.25
C16.5938 -14.25 16.0938 -14.6562 16.0938 -15.25
C16.0938 -16.3281 21.2969 -20 26.7031 -20
C33.0938 -20 37 -13.8906 37 -9.64062
C37 -6.57812 35.2969 -4.125 32.0938 -2.73438
z

M31.2031 59.6406
C32.9062 60 34.7031 60 36 60
C39.2969 60 39.5938 59.9375 41.5938 59.5625
C40.4062 59.2031 39.5938 58.9844 35.4062 58.9844
C33.5 58.9844 32.2969 58.9844 31.2031 59.6406
M23.2969 32.1406
C25.7031 33 27.9062 33 29.0938 33
C32.4062 33 32.5938 32.8594 34.7969 32.1406
C33.7031 31.4219 32.7969 31 28.5 31
C26.0938 31 25.0938 31 23.2969 32.1406" id="CMMI12-24"/>
      <path d="
M30.5938 -24.4062
C30.5938 -24.3125 30.5938 -24.1094 30.2969 -23.8125
C25.7031 -19.1406 13.4062 -6.39062 13.4062 24.6719
C13.4062 55.75 25.5 68.3906 30.4062 73.3594
C30.4062 73.4688 30.5938 73.6719 30.5938 73.9531
C30.5938 74.25 30.2969 74.4531 29.9062 74.4531
C28.7969 74.4531 20.2969 67.0781 15.4062 56.125
C10.4062 45.0781 9 34.3281 9 24.7812
C9 17.6094 9.70312 5.46875 15.7031 -7.375
C20.5 -17.7344 28.7031 -25 29.9062 -25
C30.4062 -25 30.5938 -24.7969 30.5938 -24.4062" id="CMR17-40"/>
      <path d="
M26.2969 24.6719
C26.2969 31.8438 25.5938 43.9844 19.5938 56.8281
C14.7969 67.1875 6.59375 74.4531 5.40625 74.4531
C5.09375 74.4531 4.70312 74.3438 4.70312 73.8594
C4.70312 73.6719 4.79688 73.5625 4.90625 73.3594
C9.70312 68.3906 21.9062 55.75 21.9062 24.7969
C21.9062 -6.28125 9.79688 -18.9219 4.90625 -23.9062
C4.79688 -24.0938 4.70312 -24.2031 4.70312 -24.3906
C4.70312 -24.8906 5.09375 -25 5.40625 -25
C6.5 -25 15 -17.625 19.9062 -6.67188
C24.9062 4.375 26.2969 15.125 26.2969 24.6719" id="CMR17-41"/>
     </defs>
     <g transform="translate(17.7550767872 164.955991448)rotate(-90.0)scale(0.12 -0.12)">
      <use transform="scale(0.9962640099626402)" xlink:href="#CMMI12-24"/>
      <use transform="translate(47.420333539266814 0.0)scale(0.9962640099626402)" xlink:href="#CMR17-40"/>
      <use transform="translate(82.70110133872977 0.0)scale(0.9962640099626402)" xlink:href="#CMMI12-120"/>
      <use transform="translate(138.13516087134187 0.0)scale(0.9962640099626402)" xlink:href="#CMR17-41"/>
      <use transform="translate(195.55513564854454 0.0)scale(0.9962640099626402)" xlink:href="#CMSY10-0"/>
      <use transform="translate(295.1818102768914 0.0)scale(0.9962640099626402)" xlink:href="#CMR17-49"/>
     </g>
    </g>
    <g id="text_17">
     <!-- $\times10^{-5}$ -->
     <defs>
      <path d="
M38.9062 27.8906
L18.9062 47.7969
C17.7031 49 17.5 49.1875 16.7031 49.1875
C15.7031 49.1875 14.7031 48.2969 14.7031 47.1875
C14.7031 46.5 14.9062 46.2969 16 45.1875
L36 25.0938
L16 5
C14.9062 3.89062 14.7031 3.6875 14.7031 3
C14.7031 1.89062 15.7031 1 16.7031 1
C17.5 1 17.7031 1.1875 18.9062 2.39062
L38.7969 22.2969
L59.5 1.59375
C59.7031 1.5 60.4062 1 61 1
C62.2031 1 63 1.89062 63 3
C63 3.1875 63 3.59375 62.7031 4.09375
C62.5938 4.29688 46.7031 20 41.7031 25.0938
L60 43.3906
C60.5 44 62 45.2969 62.5 45.8906
C62.5938 46.0938 63 46.5 63 47.1875
C63 48.2969 62.2031 49.1875 61 49.1875
C60.2031 49.1875 59.7969 48.7969 58.7031 47.6875
z
" id="CMSY10-2"/>
     </defs>
     <g transform="translate(54.0 25.8)scale(0.12 -0.12)">
      <use transform="scale(0.9962640099626402)" xlink:href="#CMSY10-2"/>
      <use transform="translate(77.4874676506071 0.0)scale(0.9962640099626402)" xlink:href="#CMR17-49"/>
      <use transform="translate(123.17794476766814 0.0)scale(0.9962640099626402)" xlink:href="#CMR17-48"/>
      <use transform="translate(168.86842188472914 36.15363894185866)scale(0.6973817666173724)" xlink:href="#CMSY10-0"/>
      <use transform="translate(223.1094151327055 36.15363894185866)scale(0.6973817666173724)" xlink:href="#CMR17-53"/>
     </g>
    </g>
   </g>
   <g id="patch_3">
    <path d="
M54 28.8
L388.8 28.8" style="fill:none;stroke:#000000;"/>
   </g>
   <g id="patch_4">
    <path d="
M54 259.2
L388.8 259.2" style="fill:none;stroke:#000000;"/>
   </g>
   <g id="patch_5">
    <path d="
M388.8 259.2
L388.8 28.8" style="fill:none;stroke:#000000;"/>
   </g>
   <g id="patch_6">
    <path d="
M54 259.2
L54 28.8" style="fill:none;stroke:#000000;"/>
   </g>
  </g>
 </g>
 <defs>
  <clipPath id="pb621c9fff4">
   <rect height="230.4" width="334.8" x="54.0" y="28.8"/>
  </clipPath>
 </defs>
</svg>
